<svg xmlns="http://www.w3.org/2000/svg" width="1086.8" height="1000.7" viewBox="-84.5 25.3 1086.8 1000.7"><g transform="translate(-22.8 1.7)"><clipPath id="a"><path d="M-58.8-13.7h1072.9v982.6H-58.8z" style="overflow:visible"/></clipPath><g clip-path="url(#a)"><path fill="#edc09b" d="M468.5 567.3c-5.7-3.4-112.8-55.3-112.8-55.3s6 71.5 5 86.3c-.8 11-21 59-20.4 67.6.5 8.5 109.4 198.3 125.3 215.4 16 17.1 25.1 23.4 38.8 15.4s73-71.3 83.8-87.2 53.5-143.6 55.2-159-12.1-27.5-15-38.4c-2.8-10.8 6.6-97 6.6-97S531.2 569.6 528.3 569"/><clipPath id="b"><path d="M468.5 567.3c-5.7-3.4-112.8-55.3-112.8-55.3s6 71.5 5 86.3c-.8 11-21 59-20.4 67.6.5 8.5 109.4 198.3 125.3 215.4 16 17.1 25.1 23.4 38.8 15.4s73-71.3 83.8-87.2 53.5-143.6 55.2-159-12.1-27.5-15-38.4c-2.8-10.8 6.6-97 6.6-97S531.2 569.6 528.3 569" style="overflow:visible"/></clipPath><path fill="#ba6a47" d="M350.6 527.5c.4 2.1 75.1 91.6 102.7 108a90 90 0 0 0 66.9 11.8c4.5-.8-15.7 55.3-24.7 59.3s-77.1-52-77.1-49.4c0 2.5 40 120 43.6 127.2s43.3 6.5 51.5 0 31.8-52.2 37.5-67c5.8-14.8 21.7-56.2 26-57.3s-27 117.8-31.4 129.7c-4.3 12-20.5 53.4-20.5 53.4s54.8-62.4 73.9-94.5c19-32 33.1-89.3 37.4-108.8 4.4-19.5 1.5-115 1.1-113.9S526.2 585.5 496 587.6s-145.3-60.1-145.3-60.1" clip-path="url(#b)" opacity=".2"/><path fill="#fefefe" d="M538.7 753c-1.7 4.8-10.5 29.7-23.6 37.6-13 7.8-31.7-.7-32.7 6.5s8.5 37.7 2.3 38.3c-6.2.7-36.7-59.2-41.6-72.3-5-13.1-30.1-107-35-123-5-16.1-52.4-99.9-53.4-99.9s-.3 96.5 6.6 107.7C368.2 659 373 673 389 690s26.8 36 32 46.8 18.4 40.6 18.4 52.4 1.6 29.7 5.2 36 34 69.7 41.6 69.7 20-8.2 23-19.7c2.9-11.4 19.9-48.4 25.5-64.4 5.5-16 30.4-112.3 29.7-111s-21.9 41.6-25.8 53" clip-path="url(#b)" opacity=".2"/><path fill="#913930" d="M430.7 607.8c1 .4 25 22.5 38.2 29.2 20 10.3 55.2 4.5 56.3 6.7 1.1 2.1-9.8 55.8-26.6 62.9-4.7 2 13.5 35 10.3 40.4-3.3 5.4-11.2 8.6-23.8 5.4s-34.3-16.6-34.6-15.5c-.4 1 21.4 24.8 33.7 29.1s37.2-3.3 46.2-12.3 26.4-77.8 26.7-81.4 12.7-40.3 19.9-52.6c7.2-12.2 55.1-82.5 55.1-82.5s-89 57-114.2 63.8-101.3-13.3-102.8-12.3 15.5 19.1 15.5 19.1" clip-path="url(#b)" opacity=".2"/><path fill="#ba6a47" d="M572 706.2c-.4 1.1-14.1 53-21.7 75s-18.7 47.2-17.7 45.8c1.1-1.5 35.7-43 37.5-51.2s0-28.1.7-37.8c.8-9.8 1.1-31.8 1.1-31.8m-134 102.4c-.8-4.3-4.7-32.8-10.1-45.8S409.4 719.6 401 712s-39-46.1-40-45.8c-1.1.4 32 89 43.2 107.4s33.6 35 33.6 35" opacity=".4"/><path fill="#86201b" d="M568 735.7c.4-2.5-13.9 36.3-16.4 42.9s-15.2 38-14 37.6c1-.5 30-39 30-44.4 0-5.5-1.4-24.2.4-36m-139.8 63.1c0-1.9-.3-21.7-6.2-36.5a235 235 0 0 0-29.2-44.4c3.4 11.9 15.3 26.4 18 41.4 2.8 15 5 37.2 7.3 38.5 2.3 1.4 10 1 10 1" opacity=".3"/><path fill="#903930" d="M529.4 569.7c4-1.3 15.6-7 33.8-16.2l31.9-16.3 38.5-20-2 20.6a1854 1854 0 0 0-4.2 50.1 346 346 0 0 0-.5 20.4v1.8l.2 1 .2.8q.1 1 .5 1.8l.2.9.4.8q1.4 3.3 3.3 6.4l3.6 6 3.5 6.2 1.4 3.2.6 1.7.6 1.6.4 1.7.3 1.7.4 3.5v1.8q0 .9-.2 1.7l-.7 3.6q-1.7 7-3.8 14.3A1544 1544 0 0 1 596.6 789q-3 7.6-6.6 15.2l-1 1.9-1 1.7q-1 1.8-2.3 3.4l-2.6 3.3-2.6 3.3q-10.8 12.9-22.4 25.4a1020 1020 0 0 1-36 37q-3 3-6.2 5.9l-3.2 2.9-1.6 1.4-1.7 1.4-1.6 1.3-.9.7-.8.6-1.8 1.2q-.8.6-1.8 1a21 21 0 0 1-7.9 2.5q-4.1.4-8-1.4a36 36 0 0 1-7.2-4.5c-4.5-3.5-8.5-7.7-12.5-11.8q-2.9-3.1-5.3-6.7l-4.8-7.2a1406 1406 0 0 1-29.3-47.2A3947 3947 0 0 1 348.2 681a271 271 0 0 1-6.8-14l-.3-1.3v-1.4q.5-3 1.3-6 3.4-11.5 7.5-22.8l7.6-22.2a150 150 0 0 0 3.8-13.7l.2-1.5v-7q-.1-11-.8-21.5A1688 1688 0 0 0 358 530q-.8-8.6-1.3-16.5l43 21 34 16.6a1153 1153 0 0 1 29.2 14.3l-5.1-2.8-10.2-5.6-20.5-11-21.3-10.5-51-24.8 2.6 34.3a1256 1256 0 0 1 2.6 48.7v2.7l-.2 2.6q-.4 2.5-1.1 5.1-3.1 10.5-6.8 21l-7.6 22q-2 5.7-3.5 11.5-.8 3-1.2 6v1.8l.2.7.3.8 1.2 2.8q5.4 11.2 11.5 22.2 6 11.2 12.3 22.5a3955 3955 0 0 0 82.7 141.1 478 478 0 0 0 16 23.8l3.9 4.3 8.2 8q4.3 3.9 9.6 6.5 2.8 1.2 5.7 1.6 3 .3 6-.3 5.7-1.5 10.4-5l4.5-3.6 4.2-3.8q16.7-15.5 32-31.8a942 942 0 0 0 29.7-32.6l6.9-8.4 3.3-4.3 2.8-4.7q4.7-9.7 8.4-19.6 7.7-19.6 14.4-38.6 13.4-38 23.9-72l4.8-16.8q1.1-4.1 1.8-8.4.5-4.2-.4-8.5a50 50 0 0 0-6.4-14.8l-3.9-6.5a49 49 0 0 1-4-8.1l-.4-1.6-.3-3.5V601q.1-6.8.6-13.2l1.8-23.6q1.9-21.6 3.2-34.2l1.8-16.8-42 21.9-22.5 11.6-13 6.6q-18 9.3-25 13.5l-4.8 2.7q-.2.3-.6.3l-.3.1h.6z"/><path fill="#0a0c0d" d="M71 1016.6c.7.2-119.1-16.2-119.1-16.2s.6-1.8 4.7-30.4 21.3-77.7 43.3-113.5 44.8-64.4 57.9-74 18.4-10.4 35.4-18 52.9-22.5 57.2-23.9 28.1-16.1 67.7-34.6c37.4-17.5 79-33.4 80.2-34.2 1.1-.7 13-18.3 26.1-29.7 8.7-7.5 18-18.6 28-29 4.2-4.6 7.4-11.6 7.7-11.3.8.8-1.2 35.8 4.3 53s38.3 104.7 41.8 110.2c3.6 5.5 51 57.4 66 83.6C487 875 488.6 884 488.6 884s12.6-17 28.1-41 33.6-49.4 47.4-67.6c12.2-16.2 16.6-18.8 20-23.3 2-2.5 26.9-49.6 36-75.2 10.7-30 8.2-64.7 8.2-64.7s12.5 21.1 30.5 43.5c18.3 22.7 30.1 38 37 43.2s37.2 23.8 78.9 44.5c38 18.8 130.3 51.5 143.6 62.5s14 13.3 20.9 26.6 35.3 47.3 42.5 79.4 16.5 102.6 16.5 102.6-210.5 9.6-212.2 9"/><circle cx="510.3" cy="892.9" r="12.1" opacity=".8"/><path d="M486.2 876.9s4.6 16.4 5.7 31.3.8 101 .8 101-4.6-1.5-4.2-2.6-3.8-104.9-4.2-106.8" opacity=".4"/><clipPath id="c"><path d="M71 1016.6c.7.2-119.1-16.2-119.1-16.2s.6-1.8 4.7-30.4 21.3-77.7 43.3-113.5 44.8-64.4 57.9-74 18.4-10.4 35.4-18 52.9-22.5 57.2-23.9 28.1-16.1 67.7-34.6c37.4-17.5 79-33.4 80.2-34.2 1.1-.7 13-18.3 26.1-29.7 8.7-7.5 18-18.6 28-29 4.2-4.6 7.4-11.6 7.7-11.3.8.8-1.2 35.8 4.3 53s38.3 104.7 41.8 110.2c3.6 5.5 51 57.4 66 83.6C487 875 488.6 884 488.6 884s12.6-17 28.1-41 33.6-49.4 47.4-67.6c12.2-16.2 16.6-18.8 20-23.3 2-2.5 26.9-49.6 36-75.2 10.7-30 8.2-64.7 8.2-64.7s12.5 21.1 30.5 43.5c18.3 22.7 30.1 38 37 43.2s37.2 23.8 78.9 44.5c38 18.8 130.3 51.5 143.6 62.5s14 13.3 20.9 26.6 35.3 47.3 42.5 79.4 16.5 102.6 16.5 102.6-210.5 9.6-212.2 9" style="overflow:visible"/></clipPath><path fill="#404554" d="M542.8 970.5c3.4-13.2 93.4-139 101.2-141.5 7.8-2.4 27.2 3.9 39.4 2 12.2-2 18-1 21-5.4 2.8-4.4 2.8-10.2 3.8-8.3 1 2 5.8 17.6 6.8 15.1 1-2.4 11.2-15.5 11.2-22.4s-6.8-41.8-9.7-54.4c-3-12.7-44.3-90.5-44.3-90.5s258.7 91.2 284 113.6c25.2 22.4 69 191.6 69 191.6s-444.4 26-445.9 17.7c-1.4-8.2-36.5-17.5-36.5-17.5" clip-path="url(#c)" opacity=".4"/><path d="M921.3 934.6c3.9 1.6 7.5 4.1 11.7 4.4 8.7.7 16-8.2 24.6-7.3l.8-42.2c.2-7.5.4-15.2-1.4-22.6-.7-2.8-2.2-5-3-7.7-1-2.8-1.4-6-2.2-8.9a76 76 0 0 0-13.3-25.2c-1.5-1.9-4.6-4.1-5.6-6.3 6 13 11.9 26.2 15.4 40a89 89 0 0 1 1.3 42.6c1.4-10.6-5-20.5-10.4-29.8q-5.3-9.1-9.7-18.9c-2.2-5-2.2-8.6-3-13.7a58 58 0 0 0-10.6-24.4c-2.1-3.3-22.8-15-22-14.8.6.2 18.7 16 23.4 24.4 3 5.4 4.3 10.7 4.8 16.7.6 7 3 14 3.8 21 2 14.5.4 28.3.4 42.7 0-11.6-3.5-23-8.5-33.5-5.8-12-13.7-23.2-20.6-34.5-5.5-9-9.9-19-16.3-27.4-6-8-58.1-24.5-61.4-26.6s-21.9-9.4-20-9.4 12.5 13.1 20 21.1 63.3 27.1 66.4 33c3 5.9 3.2 17.6 3.2 17.6s-71.5-35.3-75.5-38.3-18.3-15.3-20.4-18.8a316 316 0 0 1-11.8-22.8c.7.5 11 4.2 13 8s17.3 21.8 16.9 20.9-13.9-23.3-17.7-26.6a476 476 0 0 0-29.3-22.7c-11-7.8-40.2-34.1-50.8-38.6s-17.8-8-19-7 25 77.3 25 77.3c1.5.4 21.3 12.9 25.5 16.9s6.3 29.1 7.3 28.9 3.5-1.4 3.7-6.4-4-22.8-5.6-27-9.2-8.4-10-11.3c-1-2.8.4-12.4-1.7-13.3s-18.1 1.1-19.5 0-3.3-8.5-4.3-11c-.9-2.7-2.8-8.5.3-6.9s16.2 8.2 18.3 7.3c2.1-1 5.2-4.7 6.8-5s9.4 4.5 13.4 6.6c4 2.2 15.5 25.6 15.5 25.6s-6.4-21.6-6.4-23.2 8.7 2.3 9.7 3.5 17.4 38.8 23.7 44c6.3 5.1 66.8 25.8 69.7 30.5 4 6.7 6 15.4 8.6 22.6l14 39.6c3.4 9.7 5.9 21.7 12.2 29.8 4 5.2 14.8 4.6 20.6 7" clip-path="url(#c)" opacity=".3"/><path d="M722.8 766c.7 1 3.2 10.8 6.8 13s16 12.8 17.1 16.2 4.3 21.5 4.6 20.5-1.2-23.7-2.9-27-9.6-8.5-10.6-11.4-1.2-12.8-3-13.3a106 106 0 0 0-12.2.5l-.5 2.7" clip-path="url(#c)" opacity=".5"/><path d="M715.6 744.3c1 1.2 10.6 4.6 13 4.8s4.6-2.2 8.5-1.5c3.8.8 25 7.8 24.3 7.3s-29.6-13-32.8-16.7-8.4-19-12-23.4a324 324 0 0 0-17.7-17.1c.3.2 16.7 46.6 16.7 46.6" clip-path="url(#c)" opacity=".5"/><path fill="#404554" d="M741.9 724.9s56 43 57 43.6c1 .5 84.2 25.6 90.6 28.6s21 10.3 27.3 15.8 23 21.2 23 21.2-1-9.4-5.7-16.3-45.9-28.8-68.3-42.2-123.7-50.5-123.9-50.7" clip-path="url(#c)" opacity=".4"/><path fill="#404554" d="M176.2 710.4C135 722.5 60 751.2 24.5 781.8S-67.9 969.5-61 972c6.8 2.4 538.8 25.7 538.8 25.7S430.1 865 420.3 856.2c-9.7-8.7-42.8-25.3-51.5-32-12-9.4-29-23.3-30.8-39.6 1 9.2-3.4 18.3-9.7 25a95 95 0 0 1-22.5 15.8c-1.6-2.7-.4-6-.3-9.2s-2.9-6.8-5.6-5.3q-1.4 1-2 2.8l-14.4 32.8a205 205 0 0 0-.6-42c-.1-1.8 2-21.5-.2-20.2-4.7 3-6.6 17.3-8.6 22.4-4.2 11-8.8 21.7-15 31.7q.2-12.6-.3-25.2c-.3-6.4.7-15.3-3-20.8-4-6-8.3-9.7-5.6-17.3 1.7-4.5 4.3-8.7 6.5-12.9q11.5-21.7 23.4-43 12.4-22.4 24.4-44.6 4-7.4 7.7-14.8l2.2-5.4c-3.5 1-138.2 56-138.2 56" clip-path="url(#c)" opacity=".4"/><path fill="#0a0c0d" d="M98.3 824.5s-62.3 58.3-75.9 72-23.3 29-23.3 29 7.7-27.2 12.6-42.8 38-57.3 29.2-47.6-38 37-41.8 43.7c-4 6.9 2-23.3 3.9-36s14.5-36 3.8-27.2S-46.6 930.5-49.6 947s1 36 22.4 40.9 76.8 9.7 80.7 1c4-8.8 109.6-22.3 119-36.6S226.3 809 227 810c.6 1-61 80.4-70 92.7s-36.7 29.8-50.6 32.4c-14 2.6-19.2 7.5-20.1 2.6s72.6-98 69.7-97c-3 1-78.5 81-85.3 83.4-6.8 2.2-32.4 11.6-30.8 10.3s113.5-119 113.5-119L33 914.9s46.4-53.5 53.2-63.3 38.9-48.6 37.9-47.6-25.6 19.8-26 20.6" clip-path="url(#c)" opacity=".3"/><path fill="#404554" d="M181.7 754.3c-1.4.6-7.8 7.2-8.8 8S59.5 891.5 59.5 891.5s62.1-57.8 81.4-76.3 48-41 53.7-46.1 32-36.1 32.4-36.8-14.3 4.4-15 5.2-19.4 25.8-19.2 24.8 11.5-22 10.9-21.5c-.7.4-43.3 51.6-43.3 51.6z" clip-path="url(#c)" opacity=".3"/><path fill="#404554" d="M115.1 747a421 421 0 0 0-64.7 37.8c-11.1 9.7-46.5 59.4-45.1 57.6s19.7-33.6 46.9-45c27.2-11.5 60.4-28 69-30.8s131-75.5 131-75.5z" clip-path="url(#c)" opacity=".5"/><path fill="#0a0c0d" d="M292.7 669.6c-1.6.6-49.2 23-49.5 22.6s33.7-2.6 33.7-2.6-49.3 31.8-63.2 36.6-68 34.4-72.5 35.3c-4.6 1-71.3 32.1-73.2 32.4s72.2-27.5 72.2-27.5-48 48-46.3 46.6c1.6-1.3 34.3-28.5 42-35.6 7.9-7.1 17.9-18.5 23-21s13.4-5 12-4.6c-1.2.3-74.1 84.5-72.8 83.6s67.7-63.5 72.9-71c5.1-7.4 19.4-19.4 19.4-19.4s-22 33-20.4 31.8c1.6-1.3 29.5-32.1 32-35 2.6-3 26-12 25.6-11s-25.5 38.2-34 47.6-42.7 44-40.8 42.4 38.6-28.5 50.2-39.5 36-51.5 37.6-52.5 13-5.8 13-4.8c-1 91.4-54.2 174.4-102.2 248.4 25.5-6.7 45.7-26.4 61.1-47.8s27.4-45.2 43.9-65.9l-51.8 108.9c3.2-6.8 64.7 3.4 74 4.2l75.6 6.7c39.5 3.4 79.1 8 118.7 9.7.6 0 6.8.8 7 .2.7-1.6-46-142.3-52.1-152.4S310.5 667.3 308.9 667s-16.2 2.6-16.2 2.6" clip-path="url(#c)" opacity=".5"/><path d="M713 825.1s6.3-7.1 8.9-10.5a49 49 0 0 0 7.5-13c-.4-1.3-7.1-17.3-36.1-24s-77.4 8.8-83.7 14.3-105.5 76.5-113.5 74.4-85.4-58.4-94.2-68.1-28.6-53-45.4-53.4-88 5.5-95.5 12.6c-7.5 7.2-12.7 20-11.8 20.5s8.5 11.9 9.3 10.6 6.3-8.8 23.1-9.2 29.5 2 37.5.8c8-1.3 23.5-10 22.7-8.8s2.5 18.9 6.3 27.7 26.9 22.7 35.7 27.8c8.8 5 23.6 11.8 29.9 18.5s72.7 64.3 72.7 64.3 38.3-23.5 60.2-35.3c21.8-11.8 37-23.1 45.8-25.2s23.1-3.4 28.2-6c5-2.4 20.1-14.6 23.5-18s4.2-21.9 10.5-22.3 48.4.8 52.2 3.8S713 825 713 825" clip-path="url(#c)" opacity=".8"/><circle cx="509.8" cy="891.8" r="11.1" fill="#404554" clip-path="url(#c)"/><circle cx="509.8" cy="891.8" r="8.9" clip-path="url(#c)" opacity=".8"/><circle cx="509.8" cy="891.8" r="8" fill="#404554" clip-path="url(#c)"/><path fill="none" stroke="#000" stroke-miterlimit="10" stroke-width="1.3" d="M-9.7 1019.8a1377 1377 0 0 1-2.3-79.4c0-28.9 12.7-84.6 15.3-88.5s28.5-35.4 40.8-44.4c12.4-9.1 80.1-40 110.3-50.3s114.4-40.5 121.8-43.1c7.5-2.6 8.8-3.6 8.8-3.6m421.7 27.3c1.3-.4 35.7 12 62.6 22 27 10 128.5 47.6 138 52.1 9.3 4.6 24 14.3 33 24.3s15.9 23 15.9 23 2.6 34.4 1.6 65.2-1.3 88.2-2 84.6"/><path fill="none" stroke="#000" stroke-miterlimit="10" stroke-width="1.3" d="M706.4 732.9s29.8 5.8 60.6 20.7c30.8 15 137.4 49.8 163 72.8"/><path fill="#0a0c0d" d="M802 873.6c-.4-.9-28.8-29.2-30.2-31.3s-4.7-9.7-6.1-9.4-5 16.9-6.6 19.7-1 4.7-4.7 5.2-12-8.3-14.8-13.7-7-27.2-9.6-31.4-9.2-8-10.8-10.1-65 13.4-71.2 15.2-27.5 6.4-40.1 19.8-84.3 136.6-80.8 136.6c3.6 0 351 14.8 350.6 13S810.3 886 802.1 873.4" opacity=".5"/><path fill="#0a0c0d" d="M643.6 822c-4.7 2.5-16.2 3.6-28 12.5-11.7 9-92.3 143.7-91.4 145.6 1 1.8 134.2 0 134.2 0s38.3-130.3 39.7-136.7 9.4-29.6 9.8-28.9 6.8 25.9 9.2 29.9 7.5 42.3 9 46.2c1.3 4 2.7-64.3 1.3-69.7s0-14.1-1.6-14.6-78.7 13.9-82.2 15.8" opacity=".5"/><path d="M787.8 1024.3c7.3 0 30.3-.9 66.3-2.4l63.5-2.7 82-3.7-2-15.1-2-14.2a2412 2412 0 0 0-9.7-60q-1.4-7.8-3.3-15.7l-2.2-8-1.4-3.8-1.5-3.9q-.7-1.9-1.7-3.8l-1.7-3.8q-1.7-3.8-3.8-7.5l-2-3.7-2.1-3.7-4.4-7.3q-4.5-7.2-9.4-14.4-5-7.1-9.7-14.6l-2.1-3.7-2-4q-2-4-4.4-7.9t-5.8-7.1l-6.7-6.2-1.8-1.5-.9-.7-1-.7q-1.8-1.5-3.9-2.5l-8.2-4.2q-8.4-4-17-7.6c-23-9.8-46.7-19-70.8-29q-18.1-7.3-36.3-15.5-9-4.2-18-8.9a992 992 0 0 1-53.5-29.6l-13-8.4q-2-1.5-3.9-3.2c-4.9-4.8-9.3-10.3-13.7-15.6l-13.3-16.4q-6.7-8.2-13.1-16.6a420 420 0 0 1-18.4-26L632 616l-2.2-3.6-2.6-4.2.3 4.5.1 2.2.1 2a187 187 0 0 1-3.7 42.5l-1 4.7-1.2 4.6-.7 2.3-.7 2.3-1.6 4.5q-1.6 4.5-3.5 9a612 612 0 0 1-25.1 52.4l-4.6 8.6-1.2 2.1-1.3 2q-1.4 1.8-3.2 3.5c-9.3 9.3-17 20-24.8 30.6a1264 1264 0 0 0-33.8 48.4L510.5 851l-11 16.4-5.7 8-3 4-1.3 2-.2.3-.1.2h-.1l-.2-.4-.1-.6-.3-.8a80 80 0 0 0-4.1-10q-3-6.4-6.4-12.7l-3.4-6.2-1.7-3.1-1.9-3.1-3.9-6-4-5.8a543 543 0 0 0-20.2-26q-10.4-12.6-21-25l-10.6-12.4-3.8-4.7q-.4-.3-.6-.8l-.4-.8-3.3-7.4q-6-15-11.8-30.3-11.6-30.3-22.5-60.6l-2.6-7.5-1.2-3.8-1-3.8q-1.6-7.8-2.2-15.8-.5-7.8-.6-15.8l-.1-8v-6.4l-.1-1.6-.2-.6-.1-.4-.2-.3-.1-.1-.1-.1-.2.1h-.2l-.5.3q-.3.1-.6.7l-2 3.4a53 53 0 0 1-5.1 7l-2 2.1-4 4.4q-7.8 8.7-15.9 17l-4.2 4-4.3 3.8q-4.2 4-8 8.3-7.8 8.8-14.5 17.9l-.5.5-.2.3-.2.2-.1.2h-.3l-.2.2-.4.1-2.6 1.1-5.3 2.1-10.5 4.3-20.8 8.6q-20.7 8.6-40.7 18a895 895 0 0 0-57.6 29.4l-4.6 2.5q-2.3 1.3-4.6 2.3-5 1.8-9.8 3.8a1942 1942 0 0 0-37.9 15.9l-18.3 8c-6 2.5-12.3 5-18 8.3a99 99 0 0 0-8.1 5.4l-2 1.5-1.9 1.5q-1.8 1.5-3.5 3.3-7 6.6-13 14-12 14.4-22.2 29.3a519 519 0 0 0-19 29.6 381 381 0 0 0-36 87.2l-1.8 6.8-.8 3.4-.7 3.4-.7 3.4-.6 3.4-1 6.6-1.9 12.7-1 6.2q0 1.5-.4 3l-.3 1.5-.3 2 .3.7.5.6 81.4 11.2 32.4 4.5 3 .4 1.1.2h.6l.2.1h.8-1.2l-.7-.2-1.4-.2-2.7-.4-5.5-.9-11-1.7-22-3.5-43.8-7-30-4-.2-.1v-.3l.5-2.4.5-3 1-7 2.6-17.1q1.4-9.6 4.4-20.9a409 409 0 0 1 32-80.4 418 418 0 0 1 29.4-46q5.7-7.8 12-15.6 6.3-7.9 13.4-15.3 3.6-3.8 7.6-7l2.1-1.7 2.2-1.5 4.4-3q4.5-2.9 9.4-5 5-2.4 10-4.4l20.6-9a1687 1687 0 0 1 45.7-18.9q1.5-.5 2.8-1.2l5.4-2.9 10.6-5.8A964 964 0 0 1 285.3 678l12.3-5q.8-.3 1.7-1l1-1.4 2.1-2.6 4.1-5.3c5.6-7 11.5-13.9 18.3-19.8s13-13 19.2-19.7l9.4-10.2a44 44 0 0 0 4.2-5.7l.9-1.4.5-1 .4-.6.2-.2v5.6l.1 7q0 7 .5 14.2A155 155 0 0 0 363 652q.9 3.5 2.1 6.8a2427 2427 0 0 0 35.6 95.3l2.9 6.8 1.5 3.4q.9 1.7 2.2 3.1l9.5 11.3 9.6 11.2q9.6 11.2 18.9 22.8 9.6 11.8 18 23.6a166 166 0 0 1 13.6 22.4 208 208 0 0 1 10.3 22.7l.2.5.2.7.4 1.3.3 1.7h.1l.1-.2.3-.3.4-.6 1-1.3 1.3-1.8 2.2-3 4.4-6.3a984 984 0 0 0 16.9-24.9l8.1-12.4q16.5-24.7 33.1-47.4 8.3-11.4 16.7-21.7a173 173 0 0 1 9-9.7c1.4-1.6 3-3.2 4-5.2l3.2-5.7q12-22.6 21.2-42.6a215 215 0 0 0 14.2-37.2 177 177 0 0 0 5-48.2v-1.5l.5.8 2.4 3.7a396 396 0 0 0 15 21.9c6.8 9.4 14.2 18.2 21.2 27l10.7 13.2a232 232 0 0 0 11 12.6q2.8 3.1 6.2 5.6l6.9 4.5q6.9 4.4 13.8 8.5a943 943 0 0 0 54.8 29.5q13.6 6.8 27 12.4l26.5 11 50.1 20.3a827 827 0 0 1 34.4 15.3q2.8 1.4 5.2 3l1.3.7 1.1.9 2.3 1.9q4.6 3.6 8.5 7.9 3.7 4.3 6.3 9.2l2.5 5 1.3 2.5 1.4 2.5 6 9.2c8 11.9 15.5 23.1 21.6 34.3a131 131 0 0 1 13.3 33q3.3 16.3 5.7 30.3a2060 2060 0 0 1 10.5 70.4v.6h-.7.8l-145.3 6.4a1496 1496 0 0 0-64.5 4.3h-1l-.4.1z"/><path fill="#0a0c0d" d="M251 777.4c1.3 1 1.5 1.7 2.8 1 1.2-.8 4.3-4.8 16.2-10.8 11.8-5.9 35.5-8.6 50-9.4 14.6-.7 25.7-.2 25.7-.2s3.3 25.4 6.7 33.6c3.5 8.1 14.6 15.3 24.5 19.2 9.8 4 19.7 3.5 22.4 5.7 2.8 2.2 4.7 10.1 7.7 14s32.8 22.6 50.1 37.1 33.3 32.1 33.3 32.1c1-1.5 22.5-24 46.7-37.3s43.4-21.4 46.9-23c3.5-1.4 6.2-2.1 6.2-2.1s5 2.7 18 0 22.5-7.5 28.2-15c6.4-8.6 6.8-35.7 7.8-35.7s45.2 2.3 59 4.2c13.9 2 18 7 20.3 9.4s2.4 7.4 3.2 8c.7.4 3.7-2.3 3.7-8s-11.1-60.7-16-74.8c-2.6-7.1-7.5-15.3-12.6-22.6q-4-2.5-6-4c-6.8-5.2-18.5-20.5-36.9-43.2-18-22.3-30.5-43.5-30.5-43.5s2.5 34.6-8.2 64.7c-9.1 25.6-34 72.7-36 75.2-3.4 4.5-7.7 7.1-20 23.3a1216 1216 0 0 0-47.4 67.6c-15.5 24-28.1 41-28.1 41s-1.6-9-16.5-35.3-62.4-78.1-66-83.6-36.3-93-41.8-110.2-3.5-52.2-4.3-53c-.3-.3-3.5 6.7-7.8 11.3-9.8 10.4-19.2 21.5-27.9 29-13 11.4-25 29-26.1 29.7-.1.1-2.3 2-5.6 7-6.3 7.7-36 80.7-40 88-4 7.5-2.9 9.6-1.6 10.6"/><clipPath id="d"><path d="M251 777.4c1.3 1 1.5 1.7 2.8 1 1.2-.8 4.3-4.8 16.2-10.8 11.8-5.9 35.5-8.6 50-9.4 14.6-.7 25.7-.2 25.7-.2s3.3 25.4 6.7 33.6c3.5 8.1 14.6 15.3 24.5 19.2 9.8 4 19.7 3.5 22.4 5.7 2.8 2.2 4.7 10.1 7.7 14s32.8 22.6 50.1 37.1 33.3 32.1 33.3 32.1c1-1.5 22.5-24 46.7-37.3s43.4-21.4 46.9-23c3.5-1.4 6.2-2.1 6.2-2.1s5 2.7 18 0 22.5-7.5 28.2-15c6.4-8.6 6.8-35.7 7.8-35.7s45.2 2.3 59 4.2c13.9 2 18 7 20.3 9.4s2.4 7.4 3.2 8c.7.4 3.7-2.3 3.7-8s-11.1-60.7-16-74.8c-2.6-7.1-7.5-15.3-12.6-22.6q-4-2.5-6-4c-6.8-5.2-18.5-20.5-36.9-43.2-18-22.3-30.5-43.5-30.5-43.5s2.5 34.6-8.2 64.7c-9.1 25.6-34 72.7-36 75.2-3.4 4.5-7.7 7.1-20 23.3a1216 1216 0 0 0-47.4 67.6c-15.5 24-28.1 41-28.1 41s-1.6-9-16.5-35.3-62.4-78.1-66-83.6-36.3-93-41.8-110.2-3.5-52.2-4.3-53c-.3-.3-3.5 6.7-7.8 11.3-9.8 10.4-19.2 21.5-27.9 29-13 11.4-25 29-26.1 29.7-.1.1-2.3 2-5.6 7-6.3 7.7-36 80.7-40 88-4 7.5-2.9 9.6-1.6 10.6" style="overflow:visible"/></clipPath><g clip-path="url(#d)"><path fill="#404554" d="M409.7 764.7c.3 2.2 2 25 3.2 29.2s-.8 28.6-3.3 30.3-9.2-13.5-9.2-13.5-6.4 13.5-5.3 16c1 2.5 94.4 85.2 95.8 84.5s28.5-28.9 50.6-43.1c22-14.3 46-26.4 45.6-27.5-.4-1-1-6.7-5-5.7s-28.5 11.4-33.5 14.3l-18.2 10.3s3.6-2.5 7.9-7.1 19.6-11.4 25.6-14c6-2.4 16.8-7.8 16.8-7.8s-4.3-1.7-5.4-3.5 0-2.9.7-6.8c.8-4 2.9-15.7.8-16-2.2-.4-15.7 1.8-18.6 1.8s-5.3-1.8-3.2-2.5c2.2-.7 20.3-4.7 21-6.4s-3.9-24.6-3.9-23.6.7 12.9-2.8 13.2c-3.6.4-4.7-6.4-6.4-5a109 109 0 0 0-14.7 17.5c0 1.8-7.8 20.3-14.6 28.5s-42 55.2-43.8 54.9-28.1-63.8-36.3-78.4-43.9-39.6-43.9-39.6" opacity=".2"/><path d="M411.5 756.4c.3 2.2-5.1 62-4.5 65.3.6 3.1 4.2 14.3 5.4 17 1.3 2.5 9.3 22 9 16.9s-9.3-26.3-6.7-36.8c2.5-10.6 6.4-25.3 10.5-22.7 4.2 2.5 27.5 35.5 32.7 46s15 54.1 17.6 58 10.8 14 16.3 15 18-19.5 18-19.5 11.7-36.5 22-59c10.2-22.3 21.1-48 20.2-47.6s-68.2 16-77.8 9.3" opacity=".8"/><path fill="#404554" d="M733 810.4c-.8-1-2-15.3-2.4-19.2-.5-3.9-9.1-64.6-13.5-73s-23.6-38.3-32.6-48.4c-8.6-9.7-57-59.4-59-62 .9 3 2.3 69.3 2.8 85.9.5 16.8-10.4 61.9-11.7 69.8-1 6.5-2 15.4-1 18.6-.7 4.8-1.5 11.4-2.9 12.2-2 1.2-8 1.5-8.4 1.6-1.8.7-11.7.4-14.6.4s-5-4.9-5.8-5.7-2.6-4-2.8-3.6c-.2.5 5.8 23.5 6 25.3s-1.5-9.2-4.7-9.5-14.9 2.2-19 2.4-7-1-6.1-1.3c.8-.3 17-4.6 18.5-5.5 1.4-1 3.2-2.5 3.7-4 .5-1.7-4.4-35.9-4.4-35.9l-42 52.6a439 439 0 0 0-20.2 41.3c-.5 2.7 2 27.3 3.2 26.5a1857 1857 0 0 1 75.7-36.1c4-.8 31-1.5 36.8-7 1.3-1.2 2.9-4 4.7-7.5 1.5-.2 3.7-.6 4-2 .4-1 1.1-7 2.6-13.2 2-5 4-10.1 5.4-14.2q1.6-2.1 3.4-2.5c7.6-1.3 79.1 16 80.4 15.8s4.7-.9 3.9-1.8" opacity=".4"/><path fill="#404554" d="M640.2 732c0 1.2-6 49.8-5.3 50.2.8.3 4.3 4 5.1 4.5s-1.6 20.6-3.1 24.7c-1.3 3.4-2 7.4-4 10.5-1.8 3-5.1 4.5-8.2 6a97 97 0 0 1-14.6 5.6c-4.1 1.2-12.7 3.3-14.3 2-1.5-1.4-16-69-16-69s12.3 75.9 13.1 76.7 35-2 40.9-10.3 9.6-36 9-38c-.5-1.9-.9-96.4-1.5-102.2s-1.1 30-1.1 39.3" opacity=".4"/><path fill="#333642" d="M629.4 605c1.7 1 14.6 31.3 21.1 60 7.8 34 12.6 66.4 13.1 75.8s-1.3 33.6-1.3 33.6l18.3 2.5s-15.8.8-22.1.8-10-2-11.1-.8a37 37 0 0 0-2 13c.3 2.5 58-2 67.9 7.8s13.3 14.3 13.3 14.3 7.2-1 7.7-4.4c.6-3.3.6-21.6-3-41S710 703.2 700.6 695c-9.5-8.2-71.2-90-71.2-90" opacity=".8"/><path fill="#0a0c0d" d="M584 799.8c.6-.3 5.7-2.3 8.9-3.3 3-1 13.9-2.5 14-1.1s-.3 2.7-.5 6 .2 5.9.9 6.3 7.8 2.5 8.9.4c1.1-2 1.5-2.7 3.2-3 1.7-.1 14.7 4.4 15.6 3.4.8-1 2.7-9 2.5-9.3-.1-.3-10.4-1.4-12.2-1.6s-2.3-3.4-1.9-4.7 4.7-2.3 8.4-1.8 7 1.9 7 .7c.2-1.1 2.4-4 1.2-5.1s-5.5-4.8-7.5-5.5-14.9 3.9-15.8 2c-1-2-.1-10.3-1.2-11.3s-2.5-2.7-3.9-2.8-3.3 3.5-3.2 5.5c.1 2.1 1.2 12.5.1 12.8-1.1.2-10.5 0-14.3 1.4s-11.7 3.7-11.7 4.2 1.5 6.8 1.5 6.8" opacity=".6"/><path fill="#0a0c0d" d="M566.7 766.5c.2 1.3 3 20.9 3.4 22.2l3.5 9.5c.2.5 3.1 6.5 2.9 7.8s-3.3 5-3.3 7.3 6.4 19.4 6.4 19.4 2.8 1.8 3.7 3c.8 1.3 2 5.8 2.5 6.3s7.3-.4 6.8-1-5.4-11.7-5.8-15.4.8-14.4-.7-18.3c-1.6-4-9-49.5-9.5-50.4s-9.9 9.6-9.9 9.6" opacity=".6"/><path fill="#404554" d="M359.6 597c-1.8 1.2-59.4 63.4-71.7 78.8-12.2 15.3-45.5 90.7-44 98s7.4 11.2 7.4 11.2 85.9-23.7 89-22.5 1.8 31 13.5 41.5c9.1 8.2 30.7 15.8 40.2 17.7q4.1.8 4.7.2c1.2-2.2 9.8-30.8 9.8-30.8s-5.8 17.2-9.2 22.4-5 6.8-5 6.8 9-16 11.7-30c2.7-14.2 6-33 5.6-37.8s-49.5-156.7-49.8-157-2.2 1.5-2.2 1.5" opacity=".4"/><path fill="#404554" d="m353 607.8-43.3 84.8s26-36.3 25.8-35.3l-8.5 48.2s32.5-103.7 32.5-104.7-6.5 7-6.5 7" opacity=".3"/><path d="M380.2 765.2q-.4 1.1-.1 2.4a4 4 0 0 0 1.3 2.4c.8.5 2 .7 2.7.1q1-.8 1-2.3 0-1.6-.6-2.7a4 4 0 0 0-2.2-1.8c-.1.7-1.7 1.1-2 2" opacity=".6"/><path d="M376.7 760.4q-2 1-4.1 1.3a5 5 0 0 0-2.5.9c-1.2 1-1 3-2.1 4.2a4 4 0 0 1-2.8-2.2q-.4 1-1 1.7-1 1-.4 1.9.5.6 1.2.7c1.4.3 3 .5 3.9 1.6q.6.9.7 1.9c.5 2.2.8 4.8-.5 6.7-.3.4-.7 1-.3 1.4q.3.4.8.2.4-.1.7-.5a12 12 0 0 0 2.6-3.9q.2-.6.8-.8l.7.1q1.6.8 2.6 2.2 1.3 2 .1 3.2 2.6-1.1 3.9-3.7l.1-.9q0-.3-.4-.6-1.4-1.5-3.3-2.2c-1.7-.7-3.6-1.1-4.6-2.6q-.9-1.5-.8-3.1-.1-1 .4-1.9.8-1 2.1-1.3 4-1.5 6.9-4.4c.7-.7 1.4-1.7 1-2.6q-.4-.6-1-1t-1.3-.3-.6 1q.1.6-.4 1.1a7 7 0 0 1-2.4 2" opacity=".6"/><path fill="#0a0c0d" d="M379.8 756.2c-.5.7-3 3.8-4.6 4.1s-3.3.2-3.6-.7 5-12.2 6-12.6 16 7.6 19.2 10.2 5.2 9.9 5.5 10.3-26.1 27.7-24.4 28.1 8.7 3.6 11.5 6.3c2.7 2.7 4.6 9.8 4.6 9.8s6.8-19.1 8.8-25.6 5.6-27.5 5.4-30.7c-.3-3.1-23-54.9-24.7-62-1.7-7-22.8-102.6-22.8-102.2 0 .5-4.3 18.1-4.6 25.3S330 698.4 327 711s-6.5 32.4-7 32.3-18.6 3.7-30.2 6.3-25.8 12.2-25.2 11.7 11.3-9.4 36.7-11.4a326 326 0 0 1 40.3-1.9c1.4.4 1.2 1 2 1.1s1.4 11.2 1.4 11.2l1.6-10.6c.2-1.6 3.6-43.1 4.2-43.1s-1.9 47.7-1.9 47.7 4 .6 3.8-.1 3.7-76.5 4.1-76.5 2.4 79.7 2 80.3c-.7.8-8.9.1-8.9.7v4l9.5 1.1q1.2 0 2 .8c.5.8.1 1.8.3 2.7.5 2.1 3.6 2 5.5 3 2.7 1.6 2.6 5.7.9 8.3s-4.4 4.3-6.4 6.7q-3.4 4-3.6 9.5c5-2.6 9.4-6 14-9.2 4.8-3.6 10-8 11.1-10s3.2-8.8 1.2-10.1-1.2-3.2-3.2-1.3-.7 1.6-1.3 4.5-.3 5.5-2.6 5.1-5-2.3-5.1-4c-.2-1.7-.8-3.9 1.4-4.7 2.1-.9 8-4.5 8.2-5.3.1-.9 1.4-2.5.8-3-.6-.3-2.8-.6-2.8-.6" opacity=".6"/><path fill="#4e4f5b" d="M359.4 616.7s-6 21-7 44.8-6.3 93.6-5.7 94.6c.7 1 2.1 1.7 2.1 1.7s5.4-90.2 6.6-100.6c1-10.4 4.6-35.7 4.6-36.7s-.6-3.9-.6-3.9" opacity=".4"/><path fill="#4e4f5b" d="M304.3 660c-1.6.4-10.8 23.7-23.1 48.3-12.3 24.7-21.9 51.7-24.3 55.4s-3.2 9.2-3.2 9.2 6.7-8.7 31.6-14.6c24.9-5.8 55-3.7 58.1-3.3s2.7-1.7 2.7-1.7l5.2-66.8s-2.4 66.5-.6 82.1a62 62 0 0 0 7.7 26.5c2.1 3.4 15.7 10.1 21.2 12.6s15 4.3 15 4.3l9.6-23.4s-7.7 30.8-15 43.1c-7.4 12.3-37.6-17.8-44-31s-6.8-31.1-9-33c-2.1-1.8-42.4-1.8-52.2 1s-25.9 10.7-31.4 12.2-4 2.5-7.4-3.7c-3.4-6.1 9-22.4 13.2-39 4.3-16.6 32.6-65.5 35.7-68.6s10.1-9.5 10.1-9.5" opacity=".4"/><path fill="#4e4f5b" d="M693.4 693.8s3.9 4.4 12.9 25S725 777 726.4 787s1.7 14 1.7 14-4.1-9.4-14.3-12.3-35.5-3.2-41.6-3.5c-6-.2-19 1.7-19 1.7s58.2 10.5 64 14.6c5.8 4.2 8.3 10.3 9 9.8s4.1-.3 5.1-3.2-.2-4.8.5-10.7-12.9-66.1-18.2-80.2-20.2-23.4-20.2-23.4m-68-85.9v-.1"/></g><path fill="none" stroke="#000" stroke-miterlimit="10" stroke-width="1.3" d="M360.2 609.3c-2 6.1-8.2 29-8.8 42.2-.6 15-5.5 95-5.5 98.6l-.2 7.9"/><path fill="none" stroke="#000" stroke-miterlimit="10" stroke-width="1.3" d="M360.5 626.4a170 170 0 0 0-5.2 29.3c-.6 15-5.5 95-5.5 98.6l-.2 8s4 23.8 6.7 28.7c4.8 8.8 15.4 13 22.7 16.1s15 4.6 15 4.6 10.3-22.2 12.6-46"/><path fill="none" stroke="#000" stroke-miterlimit="10" stroke-width="1.3" d="M344.6 747.5c-23-4.2-50.5 2.3-61.9 5.8-11.3 3.6-24.3 12.3-24.3 12.3s32.5-83 39-92.5" opacity=".7"/><path fill="none" stroke="#000" stroke-miterlimit="10" stroke-width="1.3" d="M396.5 815.7a93 93 0 0 0 8.4-21.5c2.5-10.3 4.4-18 4.5-25.2m180.8 68.3s-2.4-5.2-2.8-7.1c-.3-2 .7-9.8-.6-17s-6.2-28.4-8.8-37.2a69 69 0 0 1-1.9-14.6"/><path fill="none" stroke="#000" stroke-miterlimit="10" stroke-width="1.3" d="M489.2 891c.3-1.5 23.7-22.6 43.8-35.2a383 383 0 0 1 54.4-25.7"/><g fill="none" stroke="#000" stroke-miterlimit="10" stroke-width="1.3"><path d="M589 834h1.3"/><path stroke-dasharray="2.5154,2.5154" d="M592.8 834c3.2.1 8.2 0 14.4-1.6 10.4-2.6 21.4-5.8 24-10.4 2.6-4.5 7.8-32.7 8.1-37.2s1-57.4 1.6-80.1a386 386 0 0 0-10.7-79.9"/><path d="m629.9 623.6-.3-1.2"/></g><path fill="none" stroke="#000" stroke-miterlimit="10" stroke-width="1.3" d="M644.2 786.6s1-31.7 0-59.9 1.5-81.4-15.8-114.6"/><path fill="none" stroke="#000" stroke-miterlimit="10" stroke-width="1.3" d="M644.8 775.7s35.7-.3 54.2 4.2 25.7 13.5 25.7 13.5-2-20-9.5-45.6-19.6-49.8-19.6-49.8" opacity=".7"/><path fill="#4e4f5b" d="M611.2 776.3c.2.7 1.8 21.8 1.2 23.5-.5 1.7-4.5.8-4.7 1.7-.2 1 .6 3.1 1 3.5s3.5.5 4.2.2 1.9-3 2.3-5.7-2-20.4-2.3-21.6c-.2-1.1-1.7-1.6-1.7-1.6" opacity=".5"/><path fill="#404554" d="M577.4 767.9s1.1 3.2 1.3 5.7c.2 2.4 4.2 19.7 5 19.7s3.1-2 8.4-4.7c5.4-2.6 12.4-3.4 14.3-2.4s3.7 1.5 3.6 1-.8-10.2-3-11.5-4.6-.7-5.3-2.5c-.6-1.7-.8-11.6-2.8-12.1s-6.8-3.3-8-1.6c-1.4 1.6-1.4 7.6-2.8 7.7-1.5.2-10.7.7-10.7.7" opacity=".4"/><path fill="none" stroke="#000" stroke-dasharray="2.5" stroke-miterlimit="10" stroke-width="1.3" d="M485.5 890.3s34-29.2 40.7-35.4 36.6-18.6 42.3-21.4 14.9-6.8 14.9-6.8-4.4-19.3-4.5-22.2c-.2-2.9-7.3-36.8-7-38.9"/><path d="M489.9 883.8a669 669 0 0 0 25.6-36.8l8.5-12.9a1245 1245 0 0 1 33.2-47.5q6.6-9 13.9-18.2 3.7-4.6 8-9l4.2-4.6 2-2.5.5-.8.4-.7.8-1.3a677 677 0 0 0 35.2-75.5 134 134 0 0 0 6.3-30 209 209 0 0 0 1.2-23.8v-3.9l.6 1 3 4.8a383 383 0 0 0 19.8 28l14.7 18.2 15.1 18.6q3.9 4.6 8.2 9 2.1 2.3 4.7 4.1l5.1 3.5.3.3.4.6.9 1.3 5 7.7a79 79 0 0 1 9 23l2.9 12.2a1037 1037 0 0 1 7.8 37.6q1.3 6.5 2.1 12.8.4 3.1-.8 5.9l-.7 1.3q0 .3-.4.5-.2.2-.3 0v-.3l-.2-.8a26 26 0 0 0-1.8-4.8l-.5-.8-.6-.7a23 23 0 0 0-5.2-4.5 39 39 0 0 0-12.7-4.5q-6.7-1.1-13.3-1.6l-26.8-1.9-13.5-.7-6.8-.4c-.3 0-1.6-.2-2.3.4l-.4 1.4-.1.8-.4 3.4q-.7 6.8-1.7 13.5a61 61 0 0 1-3.2 13l-1.5 3-1 1.2-1 1.3a31 31 0 0 1-5 4.4A46 46 0 0 1 617 834a79 79 0 0 1-13.3 3.1 45 45 0 0 1-10 .2l-1.7-.3-.7-.3-.4-.1-.7-.3-.7.2-.5.2-.9.3-1.7.6-3.5 1.4a447 447 0 0 0-20.1 9.2q-13.4 6.5-26.4 13.7a161 161 0 0 0-24.6 16.9 250 250 0 0 0-16.8 15l-2.7 2.6-1.9 2-2.4-2.5-3.1-3.2a475 475 0 0 0-19.4-18.8 242 242 0 0 0-28-22.2l-14.8-10.3q-3.8-2.5-7.3-5.2-3.8-2.5-7-5.4l-.7-.7-.6-.8-1-2-2-4q-.7-2-1.8-4l-1.3-2a6 6 0 0 0-1.8-1.9q-2.3-1-4.6-1.3l-4.4-.7q-4.5-.7-8.6-1.8-4.2-1.2-8.2-3.2a66 66 0 0 1-14.6-9.6c-2-2-4-4.2-5.2-6.7q-1.7-3.8-2.6-8.3a166 166 0 0 1-3.2-17.2l-.6-4.4-.7-5H344l-1.7-.1H339a308 308 0 0 0-20.3.4q-13.6.8-26.8 3a127 127 0 0 0-19.4 5.1l-3 1.4-3 1.6a62 62 0 0 0-11 7.4l-1.3 1-1 .8h-.3l-.5-.3-1.1-1q-.7-1-.5-2.5t.8-3l2.8-5.8 2.6-5.9 5.2-11.8 10-23.5q5-11.5 10.2-22.9l2.5-5.6 5.4-11 1.5-2.7 1.5-2.5a51 51 0 0 1 5.2-6.6l.6-.6.7-.7 2-2.6a300 300 0 0 1 17.1-20.3l2.3-2.3 2.4-2.2 4.8-4.4q9.3-9.1 17.7-18.5l4.2-4.7q2.3-2.2 4.2-4.6 2-2.5 3.6-5.2l1-1.7.2-.3.1-.1v.2l.1.6v5.5a544 544 0 0 0 .8 24.2 114 114 0 0 0 3.1 19.4l1.2 3.7 2.5 7.2a3015 3015 0 0 0 34.2 90.7l2.4 5.8c.8 1.8 1.8 3.9 3.1 5.4q7.7 9.4 15 17.8l13.9 16.4a671 671 0 0 1 23.1 29.1q5 6.8 9 12.8l3.6 6a377 377 0 0 1 12.2 23.8l1 2-3.3-7.9q-3.6-7.8-7.6-15.5a223 223 0 0 0-18.7-29.1c-1.9-2.4-6.9-9-15-18.8a1586 1586 0 0 0-23.5-27.7l-4.8-5.6-2.4-3-1.3-1.5-1.1-1.5-.9-1.7-.8-1.9-1.6-3.8-3.2-7.9-6.6-16.9A3527 3527 0 0 1 372 674l-3.9-10.8-1.9-5.5q-1-2.7-1.7-5.6-1.5-5.6-2-11.7a186 186 0 0 1-1.3-24.8v-6.4l-.1-3.2c0-1 0-3.7-.4-4.3l-.1-.3-.2-.2-.5.2-.5.2-.2.3-.4.5-2 3.4q-1.5 2.6-3.4 5-1.9 2.3-4.1 4.5l-4.2 4.6q-8.4 9.4-17.5 18.5l-4.8 4.3-4.8 4.6a166 166 0 0 0-17.3 20.5l-2 2.7-.6.6-.2.2-1.6 1.6a51 51 0 0 0-4.2 5.6l-1.6 2.6-1.5 2.7-2.7 5.4-2.7 5.6-2.5 5.6a1770 1770 0 0 0-20.2 46.2l-5 11.8-2.7 6-1.4 2.8a38 38 0 0 0-2.4 6.3c-.2 1.1-.3 2.5.5 3.7l.6.7.7.5.6.6q.5.5 1.2.5l.6-.2.5-.2.4-.3.4-.2 1.2-1.1a60 60 0 0 1 22.8-12.4q6.4-1.7 13-3a236 236 0 0 1 47-3.4h6.3l.4 3.2.5 3.7 1.2 7.4q1.2 7.5 3.1 14.8a24 24 0 0 0 8 13 59 59 0 0 0 27.3 13.4q3.8.9 7.6 1.3l3.6.8.9.3.7.3q.8.5 1.2 1.2 2 3 3.4 6.6l1.6 3.5q.8 1.8 2.2 3.4l1.4 1.3q.7.7 1.6 1.2l3 2.4 6.3 4.4q14 9.6 26.9 19 12.7 9.6 22.1 18.7a439 439 0 0 1 19.6 19.5l2.7 2.9.8-1 .7-.8 1-1 2-2.2a205 205 0 0 1 13-11.9q8.8-7.5 17.8-13.7 9-6 18-10.6a574 574 0 0 1 40.2-19.3q4-1.7 5.8-2.2h.4q.2 0 0 0l.4.1.7.2 1.5.4 2.9.3h5.8q5.8-.7 11.2-2.1c7.3-2 14.6-4.8 20.3-9.9q2.1-1.9 3.9-4.1 1.7-2.5 2.7-5 1.8-5.4 2.7-10.8l1.5-10.8.6-5.4q0-1.3.3-2.6v-.7l.1-.2h.3a1626 1626 0 0 1 51.8 3.4q5 .4 9.8 1.4 4.9.8 9.1 3a22 22 0 0 1 7.3 5.8q1.1 1.7 1.7 4l.3 1.2.1.6v.2l.2.2.1.5.5.8.8.4q1-.1 1.7-.8l.4-.4.2-.2.4-.6.6-1.2q.6-1.1.9-2.4.5-2.5.2-5-1.4-9.4-3.2-18.3a945 945 0 0 0-11.4-50.6 60 60 0 0 0-6.1-14.9 123 123 0 0 0-6-9.8l-1.1-1.5-.6-.8-.1-.2-.3-.3-.5-.4-5.9-4a51 51 0 0 1-5-4.9q-4.7-5.1-9-10.2l-8-10-14.4-17.8a405 405 0 0 1-26.7-37.5l-1.2-1.8-1.8-3-1.6-2.7-.7-1.2-.4-.6-.1-.2v.2l.3 4.8-.4-5.2.3 5.2.2 2.5v6.8a202 202 0 0 1-2 28 138 138 0 0 1-8.8 32.8q-6.2 15-12.5 28a893 893 0 0 1-18 35.3l-1.4 2.6-1.4 2.4q-1.7 2.2-3.7 4.2a176 176 0 0 0-13.9 16q-11.8 15.4-20 27c-11 15.4-18 25.7-22.4 32.4l-7 10.6-19.6 30.4q-6.7 10.6-7.6 12.5l-.5 1.1-.6-1.4q-.4-.8-.3 0l.3 2 1.3-1.6z"/><path fill="#4e4f5b" d="M350.1 757.8c2.3-.2 8.2.4 8.6.2s-1.3-67.2-1.6-66.6-4.2 62.4-4.4 62.8-2.3-.3-2.3-.3z" opacity=".4"/><path fill="#404554" d="M131.2 770.5c-1.4.4-21.8 15-25 17.6-3.2 2.5-25.4 22.1-25.4 22.1s31.1-32.2 30-32.2c-1 0-39 31.2-39 31.2l20-23.3s-15 10.7-22.8 15.4-37.6 24-46.2 34S.6 872.2.6 872.2s28-33.7 41.5-41.6 36.9-14 35.8-12.8c-1 1-20.7 19.3-19 18.2s16.5-10.7 38.4-31.5c21.8-20.7 40-36.5 40-36.5z" opacity=".4"/><path fill="#404554" d="M865 789.5s15.1 15.5 20.5 24.4 20 32.2 19.3 32c-.8-.3-12.6-25.4-16.8-34.3s-8.9-12.8-10.8-14l-12.1-8.1m25.1 15.5c1.5 1.7 10.9 19.5 14 23.6 3.3 4.2 8 18.8 9.4 19 1.5.3 9.9.6 9.9.6s1-13.9-4.7-21c-5.7-7.2-10.8-15.2-11.6-15.3-.7 0 10.6 20.7 10.6 23.4s1 6.2.3 5.4c-.8-.7-18.5-30.3-20.7-32a193 193 0 0 0-13.3-8zm-88.6-28.9c-.7-.6 16.2 27.6 16.2 27.6s-15.8-14.3-18.5-19.4c-2.7-5.2-3.2-10.9-6.6-12.1-3.5-1.2-8-5-8.2-5s7.2 17 12.4 23.2c5.1 6.2 75.8 36 83 42.4 7.1 6.4 19.2 46.8 19 44.8-.3-2-11-43.3-18.5-53.9-7.7-10.6-77.1-46.1-78.9-47.6M747 754.2s6.5 14.3 8 24.4a387 387 0 0 0 9.3 45.4c3 8 32.6 39.5 42 55.6 7.8 13.2 61.5 46.9 61.5 46.9l8.1 2.2s-66-76.6-70.7-85a598 598 0 0 1-21.4-50.8c-5-13.3-10.1-29.8-12.3-32-2.3-2.3-7.7-3-7.7-3s6.4 13.8 7.7 21.7 6.9 32.3 6.4 31.3-13-32.3-16.8-40c-3.7-7.6-6.1-13.2-8.1-15-2-1.7-11.4-5.6-11.4-5.6zm-589.3 3c-.5.2-96.1 91.2-95.1 90s47.6-35.3 65.2-51.9a779 779 0 0 0 39.8-41.6s-9 3-9.9 3.5" opacity=".3"/><path d="M227 732.3c.4 1.6-29.3 42.7-30.7 44.9s-18.6 21.4-18.6 21.4 19.2-15.8 28.9-27c9.7-11 30.2-43.5 30.2-43.5zm-49.3 17.2-66.9 70.7s75.8-73.3 76-73.8c.4-.6-9 3-9 3" opacity=".5"/><path fill="#edc09b" d="M614.6 596c-1.1.8-34.1 47.7-41.6 62.3s-16.5 47.6-16.5 47.6 8.2-4.9 10.8-11.6 17.3-33.4 32.7-59.2c15.3-26 27.7-57.8 27.7-57.8z"/><path fill="#fefefe" d="M423.5 617.2s8.3 33 15.9 42 44 37.9 47.5 38.6 3.4-4.2 3.4-4.2-7.6-42.7-9.6-43.3-51-20.7-57.2-33" opacity=".1"/><path fill="#edc09b" d="M328 343.6c-7-5.1-10.7-12.3-14.8-19.6-3.2-5.7-7.8-14.3-14.7-16-9.8-2.4-13 3.7-13 8.5s.5 8.2-4.2 22.5-4.5 11.1-5.3 23.8.8 41.6 5.8 50c5 8.5 21.5 27.6 23.3 31.6s16.7 14.3 24.1 2.6c7.4-11.6 5.8-22.2 5.8-22.2"/><clipPath id="e"><path d="M328 343.6c-7-5.1-10.7-12.3-14.8-19.6-3.2-5.7-7.8-14.3-14.7-16-9.8-2.4-13 3.7-13 8.5s.5 8.2-4.2 22.5-4.5 11.1-5.3 23.8.8 41.6 5.8 50c5 8.5 21.5 27.6 23.3 31.6s16.7 14.3 24.1 2.6c7.4-11.6 5.8-22.2 5.8-22.2" style="overflow:visible"/></clipPath><path fill="#ba6a47" d="M274.8 404a85 85 0 0 0 21.8 48.6c4.5 5 9.8 9.5 16.3 11 6.7 1.6 14-.5 19.2-5s8.3-11.3 8.8-18.1-1.3-13.8-4.8-19.8q-.3-.5-.7-.7-.8 0-1.3.5a28 28 0 0 0-6 8.9c-1.6 3.6-2.4 7.6-4.3 11-2 3.5-5.7 6.4-9.6 5.8-3.6-.5-6-3.6-8.2-6.6-1.8-2.4-2.6-5.7-4.8-7.7A53 53 0 0 1 286 409c4.5 5 9.7 10.6 16.5 10.8-6.5-7.6-13-15.5-16.5-24.9s-3-20.8 3.4-28.4c-.3 7.2-.1 14.6 2.2 21.4a25 25 0 0 0 14 15.7c2 .9 4.3 1.4 6 3s1.9 4.7-.1 5.7a9.4 9.4 0 0 0 8.6-10.8c-.8-4.2-4.6-8-3.3-12s6.8-5.5 7.7-9.5c.4-2.1-.6-4.2-1.6-6.1L293.3 316c14.5 11 23.2 27.7 31.4 43.8a48 48 0 0 0-.9-36.5c-3.7-8.3-7.6-15.8-16-19.3s-17.8-3.5-26.7-1.7c-15.4 3-30 10.9-39.7 23.2a51 51 0 0 0-9.8 44.2" clip-path="url(#e)" opacity=".3"/><path fill="#913930" d="m333.6 425.1-.2 4.4a37 37 0 0 1-4.6 14.8l-1 1.5q-.3.8-.9 1.3-1 1.4-2.4 2.3a9 9 0 0 1-7 1 20 20 0 0 1-10.7-6.4l-.2-.4-.4-.6-.7-1.2-1.5-2.2-6.6-8.4-6.8-8.7q-3.6-4.4-6.8-9.2l-.7-1.2-.6-1.2q-.4-.6-.6-1.3l-.4-1.3-.8-2.7-.7-2.9q-1.1-5.8-1.8-11.8a199 199 0 0 1-.5-34.8q.2-2.5.8-5 .6-2.4 1.6-4.8c2.2-6.6 4.6-13 6-19.7l.6-5v-5c0-2.8 1.3-5.6 3.5-6.9q1.7-.9 3.7-1t4 .5q2 .4 3.5 1.5 1.6 1.1 3 2.5c3.5 3.8 5.7 8.2 8 12.1q3 6 6 10.4c4 5.7 7.8 8.5 8.6 9.3q-3.6-4.5-5.4-9.5c-.5-.8-2.6-3.7-5.5-8.8q-2-3.9-5.2-9-1.5-2.6-3.8-5.2a20 20 0 0 0-5.6-4.6q-1.8-.9-3.8-1.2a17 17 0 0 0-4-.4q-2.1.1-4.2 1a9 9 0 0 0-3.4 3.1q-1.2 2-1.6 4.3v4.3q0 4.2-1 8.4-2.1 8.4-5.3 17.2l-1.5 4.4q-.8 2.3-1.1 4.8l-.8 9.4a191 191 0 0 0 2 36.3q.8 6 2.7 11.6l.7 1.4.7 1.4a49 49 0 0 0 4.8 7l6.7 8.8 6.3 8.2 3 4 1.3 1.9.3.4.2.5.3.4.4.7a16 16 0 0 0 3.6 3.6q1.9 1.5 4 2.5 4.1 2.2 8.6 2a12 12 0 0 0 7.7-3q1.4-1.2 2.4-2.8l1.6-2.7a41 41 0 0 0 4.2-11.4l.2-1.2a10 10 0 0 0-1.2-6.7 3 3 0 0 0-1.2-1.1q-.4-.1-.5.1"/><path fill="#913930" d="M310 401.5c3 1.7 6.9 5.3 6 9 3-.5 4.4-4.5 4.2-7.3-.3-3-1.8-5.8-3-8.7-1-3-1.6-6.3 0-9 1.1-2 3.3-3.1 4.2-5.2s.5-4.6-.2-6.8q-1.8-5.3-5.2-9.7c-2.1-2.7-4.6-4.7-6.3-7.7-3.5-6.4-5.2-13.5-8.8-19.8q-3.8-6.4-9.8-10.8-.7-.6-1.5-.5c-.6.2-1.3 5.2-1.6 6a87 87 0 0 0-2.3 39.3 53 53 0 0 1 8-27.4c1-1.6 2.5-3.4 4.5-3.4 2.4 0 3.8 2.5 4.8 4.7 1.6 3.6 3.2 7.3 3.9 11.2.7 4 .3 8.2-2 11.5-2 3.4-5.7 5.4-8.2 8.5a15 15 0 0 0-3 12 15 15 0 0 0 7.2 10.1c2.9 1.7 6.2 2.4 9.1 4" opacity=".4"/><path fill="#edc09b" d="M671.8 333.8s14.8-23.6 24.3-22 8.5 15 8.5 19.6c0 4.5 1.3 25.4 4 38.1s6.3 30.2 1.6 41.3c-4.5 10.5-11.4 20.6-17.1 30.4-4.7 8-13 19.5-23.4 15-13.8-6.2-13.3-24-13.3-24"/><clipPath id="f"><path d="M671.8 333.8s14.8-23.6 24.3-22 8.5 15 8.5 19.6c0 4.5 1.3 25.4 4 38.1s6.3 30.2 1.6 41.3c-4.5 10.5-11.4 20.6-17.1 30.4-4.7 8-13 19.5-23.4 15-13.8-6.2-13.3-24-13.3-24" style="overflow:visible"/></clipPath><path fill="#ba6a47" d="M680.2 469.8a65 65 0 0 0 36.4-38.4c3.4-10.5 3.8-21.8 3.4-32.8q-.2-8-.8-15.7-.3-4.3-1.1-8.6c-.3-1.5-2.2-6.2-1.7-7.5q-4.3 10.8-5.7 22.3c-2.2-15.8-7.2-31.2-8-47.2-.5-7.2 0-14.5.5-21.7-4.2 9.8-11.2 18.1-17.4 26.8-4 5.7-8 11.6-10.5 18.2-2 5.2-4.8 13.7-3.2 19.3 1 3.1 3.5 5.5 5 8.4a15 15 0 0 1-2.5 17.3c3.4-2.5 7.1-5.2 11.3-5 2 0 4 .7 6 0 2.3-.8 3.6-3.4 4.3-5.7s1.2-5 3-6.7c2.2 3.3 1.3 7.9-.7 11.4-2 3.4-5 6.3-7 9.7-2.2 3.4-3.4 7.8-1.6 11.3q7.5-13.5 19-24c0 8.5-4.4 16.4-9.7 23s-11.5 12.5-16 19.6q-1.5 2.5-3.4 4.7a7 7 0 0 1-5 2.3c-2.9 0-5.1-2.5-6.6-5q-3-5.4-3.3-11.6c-.2-2.5.4-5.6 2.8-6.5q1.5-.5 3-.2l10.5.8a48 48 0 0 1-15.3-31.5c-1-1.2-2.6-.8-4-.2q-2.3 1-3.8 3a52 52 0 0 0-4.7 62.1" clip-path="url(#f)" opacity=".3"/><path fill="#913930" d="M661.1 392.4a42 42 0 0 1 6.8 16.2q.5 4 .5 8a13 13 0 0 0 2.5 6.4c-3.9.5-7 3.6-8.4 7.3-1.3 3.6-1 7.7.3 11.4 1.7 5.2 5.6 10.1 11 11 4 .7 8.2-1.2 11.3-3.9q4.4-4.2 7.5-9.7A60 60 0 0 1 686 456c-3.2 5.1-8 9.5-13.7 11.3-7.5 2.2-16-.3-21.8-5.5a34 34 0 0 1-10.1-20.6" clip-path="url(#f)" opacity=".3"/><path fill="#913930" d="M655 432.5q-.2 1 0 4.4.4 3.6 2.5 9a23 23 0 0 0 10.7 11.4l1 .5 1 .3 1 .4 1.1.2 1.1.2h1.2a13 13 0 0 0 6.8-2l2-1.2c5-3.9 8.6-9.4 11.9-15.1l10.5-17.8 5-9.7 1-2.7.5-1.3.4-1.4.9-5.7c.6-7.6-.4-15.2-1.8-22.5q-.8-4.8-1.8-9.4t-1.7-9.3a287 287 0 0 1-2.5-35.7q-.2-4.4-1.7-8.4l-1.1-1.9-.6-.9-.8-.8-.8-.7-1-.6-1.9-1-1-.2-1-.2h-1.1l-1 .1a12 12 0 0 0-3.7 1.3q-3.3 1.9-5.5 4a73 73 0 0 0-7.6 8c-3.9 4.9-6 8.2-6.7 9q3.9-3.3 7.9-6.1c.5-.6 2.5-3.3 6.2-7q2.6-3.2 7-5.7a7 7 0 0 1 4.7-1 7 7 0 0 1 4.5 2.7q1.8 2.3 2.4 5.7.5 3.3.5 7v3.7a126 126 0 0 0 .7 11.7 312 312 0 0 0 3.1 24.9l1.7 8.4c1.3 7.1 2.4 14.4 2.2 21.5q0 5.5-1.7 10.3-.8 2.4-2 4.8l-2.4 4.6q-5.1 9.1-10.3 17.3l-5 8a46 46 0 0 1-5.3 6.7q-3 3-6 4.4-3.4 1.3-6.3.5-1.5-.4-2.8-1.1l-1.3-.7-1.2-.9q-2.2-1.6-3.7-3.6a23 23 0 0 1-3.4-6.8l-.9-3.2q-1-3.7-2.3-5.4t-1.6-1"/><path fill="#edc09b" d="M319.7 280.8s4.4 71.9 7.6 90.7 7.6 71 10.8 89c3.1 18 8 56 23.8 75.8 15.7 19.8 45.3 47.2 57.4 59.3s32.8 32.4 50.3 36.8c17.5 4.5 41.3 3.6 59.3-1.8s47.2-35.9 67.8-54.7c20.7-18.9 43-47.6 49.4-64.3 8.5-22 8.4-39.8 12.1-62.4 4-24.7 14.9-86.7 14-103.7s6.7-111.4-11.3-157.6-94.7-103.3-176.4-92-106 29.1-137.5 66.8-27.4 118.1-27.4 118.1"/><path fill="#913930" d="M419.5 487.3a29 29 0 0 1-15.8-10.3c-.6-1-3-4.7-2.5-5.8a12 12 0 0 0-1.6 7.4q0 2.2.8 4.2c.2.5 2.2 3 2.1 3.3q.4-1.2 1.8-1.5 1.3-.2 2.5.3 3.8 1.1 7.3 3" opacity=".2"/><path fill="#ba6a47" d="M487.1 312.5c3 2.6 6.2 5.6 7 9.5 1.6 8-6.4 16.4-8.6 23.8-2.1 7-1.7 14.8-2 22.1q-.7 12.1-1.9 24.3c-.5 4.9-.7 10.9-3 15.3-4.3 7.9-5.8 12.8-5.8 11.2s0-7.9-3.3-9c-3.4-1.3-18.6.5-17.7.2s7.6-15.8 8.8-23.7c1.2-8-1.8-18.6 1.2-25.3s7.7-11 7.7-15.5-12.8-19.8-25.3-28-21.3-11-21.3-11c1.3.5 6.1-2.3 7.4-2.7l15-4a14 14 0 0 0 5.1-2.3c1.5-1.2 2.6-3 2.3-5 0 .3 8.2 2.8 9.1 3.3 3.4 1.6 6 4 9.2 5.9 5.7 3.4 11 6.4 16.1 10.8" opacity=".1"/><path fill="#ba6a47" d="M468.4 341.4c-3.6-9.9-12-17.6-21.8-21.2s-20.8-3.4-30.8-.3a26.5 26.5 0 0 1 27.6 19.8c-11 .4-22.2-1-33.4-.9q-9.5 0-18.9 2.1a36 36 0 0 0-8.9 3.1c-3 1.7-5.7 4.1-8.5 6.1 2.8-1.9 6.4-2.2 9.8-1.6s6.5 2 9.7 3a78 78 0 0 0 37.7 3.7c6.1-1 12.3-2.6 18.2-1a86 86 0 0 1-66 13.5c13.5 7 29.7 7.5 44.5 4s28.4-11 41.5-18.7c.1-4.1.8-7.7-.7-11.6" opacity=".2"/><clipPath id="g"><path d="M319.7 280.8s4.4 71.9 7.6 90.7 7.6 71 10.8 89c3.1 18 8 56 23.8 75.8 15.7 19.8 45.3 47.2 57.4 59.3s32.8 32.4 50.3 36.8c17.5 4.5 41.3 3.6 59.3-1.8s47.2-35.9 67.8-54.7c20.7-18.9 43-47.6 49.4-64.3 8.5-22 8.4-39.8 12.1-62.4 4-24.7 14.9-86.7 14-103.7s6.7-111.4-11.3-157.6-94.7-103.3-176.4-92-106 29.1-137.5 66.8-27.4 118.1-27.4 118.1" style="overflow:visible"/></clipPath><path fill="#fefefe" d="M397 165.6s-21.3 2.3-28.8 30.5c-8.7 32.8-5.7 65.8-8.3 99.1q8.6-7.2 19.6-9.2c-7 1.2-15.4 16.4-19.4 21.5a57 57 0 0 0-12.6 27.8c-5.7 42 .6 128.3 13.8 166.8s47.2 61.5 58.7 85.7 19 32.2 15 34S317 578 268.1 475.5s-50.7-201.3-27-239.8 82.7-93.2 82.7-89.2" clip-path="url(#g)" opacity=".2"/><clipPath id="h"><path d="M319.7 280.8s4.4 71.9 7.6 90.7 7.6 71 10.8 89c3.1 18 8 56 23.8 75.8 15.7 19.8 45.3 47.2 57.4 59.3s32.8 32.4 50.3 36.8c17.5 4.5 41.3 3.6 59.3-1.8s47.2-35.9 67.8-54.7c20.7-18.9 43-47.6 49.4-64.3 8.5-22 8.4-39.8 12.1-62.4 4-24.7 14.9-86.7 14-103.7s6.7-111.4-11.3-157.6-94.7-103.3-176.4-92-106 29.1-137.5 66.8-27.4 118.1-27.4 118.1" style="overflow:visible"/></clipPath><path fill="#ba6a47" d="M705.2 126.5c-29.4-30.2-70.2-47.7-112-53.7-41.6-6-84.2-1.2-125.2 8.5-36.6 8.7-73.7 22-99.7 49a75 75 0 0 0-19 30.7c-2.6 9-4 25.2 3 33 6.3 7 22.2-2.2 28.8-6.6 9.3-6.3 17.2-14.5 26.1-21.4a122 122 0 0 1 106-21.1c20.3 5.6 38.6 16.3 58.2 23.7q7.2 2.8 14.7 4.8c4.4 1.1 9.1.7 13.3 2.3a38 38 0 0 1 19.2 19.5c4.7 9.7 6.5 20.6 8.2 31.3l-25.2 1c4.8 14.3 14.7 26.2 23.5 38.5 8.9 12.2 17.2 25.8 18.1 41-9.7-3.8-21-5-31.4-6.4a1096 1096 0 0 0-31.8-3.8q-15.3-1.7-30.8-2.3c-6-.2-13.7-1-19.4 1.3q-.6.2-1 .6c-11.7 7.2-24.2 20-22.2 28.5s7.6 12.9 7.6 22.5-4 59.2-2.8 69.2c.8 6.3 4.6 13.8-.5 19.2-2 2.1-5 3.4-7.8 4.2-9.7 2.7-20.6.5-28.6-5.6a43 43 0 0 0 9 16.7q-6-3.4-12.1-6a30 30 0 0 0-13.3-2c-2.1.2-4.3.7-6.4.1-2.7-.8-4.6-3.3-5.5-6-1-2.6-1.3-5.4-2-8.1q.2 4.2-.2 8.3-.7 3.6.3 7.2a32 32 0 0 0 8.2 14.7c4.9 4 11.3 5.8 16.3 10q3.7 3.2 7.6 6.3c2.2 1.7 3.9 3.5 6.4 4.7a32 32 0 0 0 18 3l9.3-2q7.6-9.6 17.7-16.7c5-3.6 10.6-6.8 14.5-11.6q2.7-3.1 4.2-7c.8-2.2.6-5.8 1.7-7.7 2.6-4.3 19.8 10.3 22.4 12.6 1.8 1.6 19.9 20.5 19.8 20.6a42 42 0 0 1-24.2 7c-5.7-.2-11.3-1.6-17-2.3a69 69 0 0 0-33.1 4.5h.2l-.5.1h-.2c-1.5.8-3.7 3.7-4.3 4.6-1 1.7-1.6 4-2.2 6q-2 6.8-3.6 13.7c-2 9-4 18.4-8.4 26.6q-1.7 3-3.8 5.9c-3.8 5-8.7 9.6-15 10.7a56 56 0 0 1-35.5-5.4 57 57 0 0 1-7.6-4.7c-1.3-1-6.2-3.8-6.5-5.5 1 6.3 1 12.2 2.7 18.5a98 98 0 0 0 23.6 41.5c1.6 1.6 5.6 4.1 6.5 6.1-1.7-4-3.3-9-.6-12.5 3-4 9.3-3 14.2-1.7 11.7 3 23.4 1.9 35.4.7q15-1.6 29-6.3a96 96 0 0 0 25.8-37.2c.3-.8.6-1.9 0-2.6q-.8-.8-2-.7l-12.7-.4c.7 0 3.8-5 4.4-5.7a346 346 0 0 0 13.8-19.6l8-13.1c2-3.4 5.2-6 8.3-8.5q2.1-1.8 4.6-3c1.1-.6 5.2-2 5.8-3a99 99 0 0 0-8.3 28.4l1.9-3.3c4.6-7.5 10.3-14.5 13.7-22.7 1.4-3.3 2.4-6.5 1.9-10-.4-2.7-1.5-9.6-4.4-10.8a18 18 0 0 1 9.8 13.2c1 5.7-.2 11.6-2.4 16.8a88 88 0 0 1-8.8 14.8c-7.8 11.4-13.3 23.9-20.7 35.8-15.2 24.7-27.2 61-55.1 74.2a76 76 0 0 1-58.5 2.7 151 151 0 0 1-31.8-18 72 72 0 0 0 49.8 48 72 72 0 0 0 67-17.6L729.2 439c14.4-52.9 29-106.5 29.3-161.3s-15-112-53.3-151.2m-169.7 320c-2.5.5-5-.2-7.5.2q-3.7.6-7.5 2c-2.6 1-4.7 2.7-7 4.2l-8 5 1.5-1.6c3-3 6.1-6.1 9.9-8.3q6-3.2 12.9-3.2c3.6 0 7.2.2 10.6-.7a9 9 0 0 1-4.9 2.4m5.5-14.3q-1.6 1.3-4 .8l-13.4-1.3q1.3-6.6 3.1-13.1c1-3 4.2-4 7.2-2.7 2.3.8 4 2.8 5.1 5q1.7 3.2 2.4 6.8c.4 1.5.7 3.4-.4 4.5m92.8 8.7c-5.9 4.9-33 6.2-38.3 3s-59.4-46.8-60-48.2-.3-26-.3-26.7 11.2 8.2 31.8 12.3a140 140 0 0 0 45.5-1l.8-.1s29 10.8 31.1 19c2.1 8.3-4.7 36.9-10.6 41.7" clip-path="url(#h)" opacity=".2"/><path fill="#913930" d="M367.4 187c14-4.6 24.3-16 35.8-25.3 29.7-24.1 71.5-34 107.9-22 11 3.7 21.3 9.2 32.1 13.4q7.4 3 15 4.5c5.2 1 10.7.3 15.8 1.4 9.8 2 17.5 4.3 27.4-.2l-9.7 7.2 40.1 6.6c2-5.1.7-11.1-2.4-15.7s-7.5-8-12-11.2a174 174 0 0 0-45-22.5c-16-5.2-31.7-10.2-48.7-12-28.2-3.2-56.9-2.9-84.7 2.7s-54.7 16.3-77.5 33" clip-path="url(#h)" opacity=".4"/><path fill="#913930" d="M566 483q6.9 1.6 13.6-.3c1.8-.5 3.8-1.7 3.7-3.5a13 13 0 0 1 9.5 1.5q-9 7.1-19.5 12" clip-path="url(#h)" opacity=".4"/><path fill="#edc09b" d="M655 265.4s12 67.3 7.1 63.5-11-10.5-11-10.5 13.1 46.7 11.5 64.9-8.6 88.3-21 124.6-52 61.6-66.4 82.6c-14.3 21-29 37.7-27.6 37.7s73.5-24.8 84.5-44c11-19 61.5-160.3 57.7-199.5" clip-path="url(#h)"/><path fill="#913930" d="M321 279.7c0-3.5-.1-12.6.7-26.5a294 294 0 0 1 5.1-38.8q1.6-7.7 4.1-15.9t6.4-16.6a85 85 0 0 1 9.8-16.3 213 213 0 0 1 29.6-30.8l4.5-3.5 2.3-1.7 2.5-1.6 4.9-3.2 5.1-3 5.4-2.7 2.7-1.3 1.4-.7 1.4-.6 5.7-2.3 1.4-.6 1.5-.5 3-1c15.8-5.6 33-9.4 51-12.3l13.8-2a164 164 0 0 1 42.5-.4 192 192 0 0 1 108 53.7 131 131 0 0 1 19.9 25.4A100 100 0 0 1 665 207q3.5 16.3 4.8 33.1 1.4 17 1.7 34t0 34.3l-.4 17.3q-.4 8.6-.3 17.4v8.6l-.1 2.2-.2 2.1-.4 4.4q-.8 8.6-2 17.2a1328 1328 0 0 1-5 34.6l-5.7 34.6-2.5 17.4q-1 8.7-2.3 17.3-2 14.9-7.3 28.9-2.6 6.9-6.6 13.2a273 273 0 0 1-37.3 46.2l-5.4 5.1-5.4 5q-10.7 10.3-21.5 20.3T546.9 619a93 93 0 0 1-12 7.7l-3.2 1.6-3.3 1.2-3.4 1-3.4.7a126 126 0 0 1-42 1.8q-7-.8-13.4-3a62 62 0 0 1-12-6.3q-5.8-3.6-11-8-10.6-8.6-20-18.1-9.5-9.4-19-18.5a655 655 0 0 1-35.4-36.5l-4-4.7-1.8-2.4-1.8-2.4q-1.7-2.3-3.2-5l-2.7-5.2q-5-10.9-7.8-22c-4-14.8-6.2-29.5-8.5-43.5q-1.5-10.5-2.6-20.5l-2.2-19.7q-2-19.1-4-36-.5-4.2-1.2-8.3l-1-8q-1-7.6-1.6-14.9-2.5-29-3.6-46.7l-1.4-22.6q.5 30 1.5 60l1.7 19.2 1 8.2 1.4 9.5 2.7 22.6 3 27.3q1.5 14.8 4 31.5c1.8 11.1 3.6 23 6.5 35.1q2 9.2 5.3 18.5a98 98 0 0 0 8.4 18.4l1.3 2.2 1.6 2.1q1.5 2.2 3.2 4.2l6.9 8a477 477 0 0 0 14.8 15.6q15.4 15.5 32.1 31.5 8.1 8.2 17 16.3a154 154 0 0 0 19 14.8 69 69 0 0 0 16.9 7.8l3 .7 3 .6a123 123 0 0 0 50.3-2.3l3.2-.9 3.1-1.1 3-1.4 1.5-.8 1.4-.8a108 108 0 0 0 10.8-7.3q10.3-8 19.9-16.9l19.2-18 9.7-9q4.8-4.5 9.5-9.3a278 278 0 0 0 33.3-42.2 86 86 0 0 0 10.6-25c3-11.1 4.5-22.7 5.9-34.1q1-8.6 2.4-17l2.8-17.1q2.9-17 5.5-34.1a773 773 0 0 0 4.5-34.1l.5-4.3.3-4.3q.4-4.3.3-8.7-.2-8.4.1-17 .5-17 .7-33.8a544 544 0 0 0-2.9-66.7q-.9-8.3-2.4-16.3t-3.7-16a94 94 0 0 0-14-29.1 150 150 0 0 0-21-23.8 195 195 0 0 0-78.3-44 168 168 0 0 0-55.5-6.3q-6.8.4-13.4 1.3l-12.9 2-12.5 2.1-12.3 2.5-11.8 2.9-11.5 3.3-5.5 2q-2.8.8-5.5 2-5.3 2-10.3 4.4l-5 2.5-4.8 2.7-2.3 1.3-2.3 1.5-4.4 2.9q-8.6 6.2-15.7 12.9l-3.5 3.3-3.2 3.4-6.3 6.8-5.7 6.6-2.7 3.3-1.3 1.7-.7.8-.6.9a89 89 0 0 0-7.9 13.6q-3.1 6.8-5.2 13c-2.9 8.3-4.6 15.7-6 21.8-2.4 12.4-3.1 19.9-3.4 21.7a195 195 0 0 0-.4 36.8c.8 7.1 1.8 9 1.7 6.5"/><path fill="#ba6a47" d="M372 344.8c-.1-.5 8.6-9.2 15.5-14.7s25.3-13.3 53.7-15.3q5.8-.5 11.6.5a30 30 0 0 1 18.3 11.2q4 5.3 6.4 11.6a11 11 0 0 1 .8 7.4q-1 3.9-3.5 7.2-3.8 4.6-8.3 8.3c3.1-3.9 2-8 0-12q-2.9-5.2-8.8-6.7c1.5.8 1.9 2.9 1 4.3-.7 1.5-2.3 2.3-4 2.5-1.6.3-3.3 0-4.9 0-12-.8-23.8 4-35.8 4-7.5 0-15-2-22.4-3.2a44 44 0 0 0-22.4.6q8-4 13.6-11l-10 5.4" opacity=".2"/><path fill="#913930" d="M383.4 343.2q9.8-12.1 23.9-18.4l-17 6.5a89 89 0 0 1 41.3-12.3c3.5-.3 8.4-1 11.8.4 2.5 1 5.1 3.4 7.1 5.3 4.7 4.4 8 10.4 9.2 16.7-.3-1.7-3.2-3.9-4.4-5.2q-2.5-3.1-5.8-5.6-6.6-5.2-14.8-7.2 11 10.2 19.6 22.5c-4.8-2-8.8-1.4-13.6-2.2" opacity=".4"/><path fill="#913930" d="M391.4 337.7a51 51 0 0 1-31.5 12.5 49 49 0 0 0 18.4-2.9 42 42 0 0 1-19.7 8.7q9.2-1 17.5-5.2 8.2-4.4 15.7-9.5" opacity=".7"/><path fill="#fefefe" d="m562.4 500.3 2-2.4c.3-.7 1.6-8.6.7-12.1-6.5.7-30.8 7.4-37.3 9-6.9 1.4-30.8 6.9-38.2 5.9-7.3-1-29.6-5.8-35-7.5-3.8-1.2-18.3-4-27-5.8.3 2.7 1 7.9 1.4 9.2.7 1.7 2 3.1 2 3.1l.2 2c7 5.2 24 19 34.1 23.3a69 69 0 0 0 42.4 2.5c12.6-4 29.7-13 36.2-16.5l17.8-9.2z"/><path fill="#ba6a47" d="M654.6 349.8c-.3-1-2.8 1.4-5.5-3.3s-3.3-26.9-8.3-29c-5-2.3-77.7-18-110-7.8a83 83 0 0 0-16 23.4c-1.4 6.3 5 23.6 5 23.6s5.4-9.6 6.2-8.3c2.1 3.5 4.8 8.2 8.4 10.4 4.2 2.5 9.5 4.1 14 6.2a98 98 0 0 0 39 10.8c6.7.1 13.4-.9 20-1a36 36 0 0 1 19.5 4.3l-14.4-9.6a46 46 0 0 1 17.6-.7c6.6 1.3 18.7 4.3 17.9 3.5s-12.6-7.1-10.4-7.1 17.2-14.3 17-15.4M595.8 366l9.5 2.3a53 53 0 0 1-32.9-1 113 113 0 0 1-29.9-14.6c6.2-3.4 14.6 0 21 .8q13 1.2 25.8-.4c3.9-.5 7.8-1.2 11.6-.9a45 45 0 0 1 16.5 6q-10.3 5.5-21.6 7.8" opacity=".2"/><path fill="#913930" d="M569.8 323.2q7.4 1.6 14.7 4a49 49 0 0 0-50.6 19.3 96 96 0 0 1 89.3 9.2l-5.1-5.4a48 48 0 0 0 23.3 2.2 31 31 0 0 1-17.6-7c-5-3.9-9.6-8.5-14.6-12.4a74 74 0 0 0-33-13.8 97 97 0 0 0-28-.4c-7.6 1-16.4 3.2-22.5 8.1-5.3 4.2-8.8 11.1-7.6 17.7-.2-1.3 2.4-4.4 3.2-5.4q2.1-2.6 4.7-4.6 5.5-4 11.6-6.8a57 57 0 0 1 32.2-4.7" opacity=".4"/><path fill="#913930" d="M606.1 342.5c9.2 8.1 20 15.3 32.1 16.5a44 44 0 0 1-23.5-5.6c-3-1.7-5.8-3.8-9-5.2a15 15 0 0 0-10-1.2q3.5-2.7 7.8-4" opacity=".7"/><path fill="#d17263" d="m411.7 482.5 15.4-.1c11.4-.2 22.9-1.5 34.1.2 9 1.4 17.9 4 26.9 5.6 1.9.4 4 .9 6 .5 5.7-.9 18.1-4.3 34.5-6.4s40.1 1 44.1 2c4 1.2 8.4.4 8.2 2-.2 1.5-5.7 11-10.7 17.9s-25 38.3-45.4 45.6c-20.4 7.2-50 6.3-68.4-2-18.5-8.1-28-26.2-34.4-39.6-6.3-13.3-12.8-26.7-10.5-26.5" opacity=".6"/><clipPath id="i"><path d="M447.7 481.7q3.6 0 7.1.3 7 .6 14 2.2c7.6 1.5 15.5 4.1 23.3 4.6h2c5.8-1 18.2-4.4 34.6-6.5s40 1 44 2c4 1.2 8.4.4 8.2 2-.2 1.5-5.7 11-10.7 17.9s-25 38.3-45.4 45.6c-20.4 7.2-50 6.3-68.4-2-18.5-8.1-28-26.2-34.4-39.6l-7.1-15.4c-.7-1.3-5-9.7-3.3-10.4 1.5-.6 4.8-.1 6.6-.2l9-.3q6-.1 12.3 0z" style="overflow:visible"/></clipPath><path fill="#942f2b" d="M582 476.2c-8.5-1.5-19.3-2-28.6-2 9.8 2.5 8.9 7.4 9.1 7.9.3.5-14.5-.7-25.6.6-7.1.9-14.2 2.6-21.2 4.1q-7.5 1.8-15 3.2c-4 .6-8 1.7-12 1.1-.8 0-5.3.3-5.7-.7a19 19 0 0 0 6 7.5c-2.8-.7-5.4-.6-8.2-1.1-14.8-2.7-29.4-6.8-44.3-8.8a81 81 0 0 1-19.2-4.3c-1.6-1 3.4-7.5 1.5-6.7s-13.1-2.8-12.6 3.5c.5 6.4 10.2 22.2 11.6 24 1.5 1.7-3.2-5.8 2.7-3.5s29 22.1 42.2 27 31.7 7.1 47.5 1.8a356 356 0 0 0 40.4-17.5c4.4-2.2 9.7-5.3 9.7-4s-18 24.2-31.8 31.1c-13.7 6.9-51.2 8.1-66.2 2.7-11.9-4.3-22.6-14-22.6-13.6s8.6 22.4 18.8 28.6 32 6.5 41.8 5.3a79 79 0 0 0 39-14.9c16.4-11.5 39.6-36.3 41-44.3 1.5-8 21-23.4 1.7-27" clip-path="url(#i)" opacity=".2"/><path fill="#fefefe" d="M549.5 344.6s12.2 3.3 20.4 4.2 17 0 21.7-1.1c4.4-1 8.6-2.8 13-4-.6.1-3.1-3.4-3.7-4l-4.2-3.4A29 29 0 0 0 586 331c-9.7-2.1-18.6-2.8-24.3.3s-17.2 11-17.2 11"/><clipPath id="j"><path d="M549.5 344.6s12.2 3.3 20.4 4.2 17 0 21.7-1.1c4.4-1 8.6-2.8 13-4-.6.1-3.1-3.4-3.7-4l-4.2-3.4A29 29 0 0 0 586 331c-9.7-2.1-18.6-2.8-24.3.3s-17.2 11-17.2 11" style="overflow:visible"/></clipPath><g clip-path="url(#j)"><path d="M551.8 345.7s-1.7-4.9-1.1-5.7c.5-1 8.2-5.4 11-6.4s23.2-1.3 27-.3 10.5 7.7 10.4 9.2c0 1.6-4.7 6.9-3.9 6.6 1-.4 9.2-6.2 9.2-6.2s-3.8-20.2-11.4-22.2-30.3-1.7-34.3 2.7-12.5 8.1-15.8 14.5-4.9 12.4-3.3 13.5" opacity=".4"/><path fill="#773a22" d="M590 342.4a16 16 0 0 1-18.7 12.3 16 16 0 0 1-11.8-19 16 16 0 0 1 18.6-12.3 16 16 0 0 1 11.9 19"/><path d="M590 342.4a16 16 0 0 1-18.7 12.3 16 16 0 0 1-11.8-19 16 16 0 0 1 18.6-12.3 16 16 0 0 1 11.9 19m-2.2-4.3c-1-2.6-4-4-7.1-3.7-2.1.2-4.2.8-6.3.8q-2.6 0-5.3-.5-1.5-.5-3.1-.3-2.2.6-3 2.9-.6 2-.3 4c.5 7.1 6.8 12.4 13.9 11.8a14 14 0 0 0 6.4-2.3c3.6-2.5 6.5-8.4 4.8-12.7" opacity=".6"/><path fill="#a36952" d="M565 341.7q-.2-2 1-3.4c1-1.2 2.8-1.7 4.2-1q1.4 1 2.3 2.3 1.3 1.9 2.8 1.6c1.3 0 2.2-1.4 3.2-2.3q1.5-1.4 3.5-1.5c5.8 0 3.4 8.3.3 10.3l-2 1c-5.3 2.7-13.7.2-15.2-6z"/><path d="M580 340.6a5 5 0 0 1-5.9 3.8 5 5 0 0 1-3.7-6 5 5 0 0 1 5.9-3.8 5 5 0 0 1 3.7 6"/><path d="M567.1 333.5c5.6.8 7 1.2 11.4.3 3.9-.7 8.2-.2 11.8 5.7.3-7.6-4.7-14.5-12.2-16.1a15.8 15.8 0 0 0-19 16.6c1.6-3 4.4-7 8-6.5" opacity=".6"/><path fill="#fefefe" d="M570 334.6s3.9 3.4 4.8 3.5c1 .2 2.2 0 2.3-.4.1-.3-.3-6.4-1-6.4s-6 1.6-6 3.3"/><ellipse cx="575.4" cy="349.3" fill="#fefefe" rx="1.1" ry=".5"/><path fill="#fefefe" d="M572.6 340.9c-.2.2-5.5 4.2-5.3 5s5 3.3 5.7 3c.5-.3 1.5-7 1.1-7.4s-1.1-1-1.5-.6" opacity=".4"/></g><path fill="#fefefe" d="M392.4 342.7s11 4 17 5 17.8 1 22.7.1l15.6-2.5s1-.7 1-1.5c-.1-.7-8-11.6-16-14s-19.2-4.6-28.6.7c-9.3 5.3-14.3 11.3-14.3 11.3z"/><clipPath id="k"><path d="M392.4 342.7s11 4 17 5 17.8 1 22.7.1l15.6-2.5s1-.7 1-1.5c-.1-.7-8-11.6-16-14s-19.2-4.6-28.6.7c-9.3 5.3-14.3 11.3-14.3 11.3z" style="overflow:visible"/></clipPath><g clip-path="url(#k)"><path d="M399.4 345.4s-4.3-3.4-3.9-4.4 5.3-6.4 9.8-8.5a73 73 0 0 1 27.4 0c3.7 1.3 11.3 8.5 11.2 9.9s-1.6 2.7-2.4 3.5-3.3 2.5-2.6 2.5c.7-.1 9.1-1 9.7-1.7s.4-8.3-2.4-10.7-6.5-9-13-10.2a83 83 0 0 0-30.7 2c-4.7 2.4-21.7 12.4-19.8 15.8s16.7 1.8 16.7 1.8" opacity=".3"/><path fill="#773a22" d="M434.1 341.5a15.7 15.7 0 0 1-18.5 12.2A15.7 15.7 0 0 1 404 335a15.7 15.7 0 0 1 18.5-12.3 15.7 15.7 0 0 1 11.7 18.8"/><path d="M434.1 341.5a15.7 15.7 0 0 1-18.5 12.2A15.7 15.7 0 0 1 404 335a15.7 15.7 0 0 1 18.5-12.3 15.7 15.7 0 0 1 11.7 18.8m-2.1-4.2c-1-2.6-3.9-3.8-7-3.6-2.2.2-4.2.8-6.3.8l-5.2-.6q-1.5-.5-3.1-.3c-1.5.3-2.5 1.6-3 2.9a10 10 0 0 0-.3 4 13 13 0 0 0 20.1 9.4c3.6-2.5 6.5-8.4 4.8-12.6" opacity=".6"/><path fill="#a36952" d="M409.4 341q-.2-2 1-3.5c1-1.1 2.8-1.6 4.2-1q1.3 1 2.2 2.4c1 1.4 1.7 1.6 2.7 1.5 1.4 0 2.2-1.4 3.2-2.3q1.6-1.4 3.6-1.4c5.7 0 3.3 8.2.2 10.1l-1.9 1.1c-5.3 2.7-13.6.2-15-6z"/><path d="M424.3 339.8a5 5 0 0 1-5.9 3.8 5 5 0 0 1-3.7-6 5 5 0 0 1 5.9-3.8 5 5 0 0 1 3.6 6"/><path d="M411.5 332.7c5.6.9 6.9 1.2 11.2.4 4-.8 8.2-.2 11.8 5.6.3-7.5-4.7-14.4-12.1-16a15.7 15.7 0 0 0-18.8 16.5c1.5-3 4.3-7 8-6.5" opacity=".6"/><path fill="#fefefe" d="M414.4 333.9s3.8 3.3 4.7 3.5 2.2-.1 2.3-.5-.3-6.3-1-6.4-6 1.7-6 3.4"/><ellipse cx="419.7" cy="348.4" fill="#fefefe" rx="1.1" ry=".5"/><path fill="#fefefe" d="M416.9 340c-.2.3-5.4 4.3-5.2 5s5 3.3 5.6 3 1.5-7 1.1-7.3c-.3-.4-1-1-1.5-.6" opacity=".4"/></g><path fill="#913930" d="m701.2 325-.1 2.2-.3 2.3-.7 2.7a32 32 0 0 1-3.8 8.7l-3 3.8q-2.4 2.9-5.2 6.7a96 96 0 0 0-4.9 7.7l-3.3 6.3a49 49 0 0 0-2.7 6.2l-.5 1.5-.6 1.7-1.4 3.5q-.7 1.7-.9 3.4v1.5l.7 1.6q1 1.5 2.3 3c1.8 1.8 4 3.8 5 6.5s.6 5.3-.2 7.3a10 10 0 0 1-4.6 5q3-2 4-5.2 1-3 .1-6-1-2.7-3.1-4.6-2-1.8-3.8-3.7a11 11 0 0 1-2-3.5l-.2-1.3q.1-2.7 1-5.1t1.6-4.8a58 58 0 0 1 7.2-16.7 88 88 0 0 1 8.6-12.8c2.7-4 6-8 8-11.6l1.3-2.5z"/><path fill="#913930" d="M692.2 340.6v.6l.3 1.6q.3 2.2 1.4 4.8c1.3 3.4 3.6 6.5 4 7.6l2 3.9 4 6.8q2.3 4 4 8a29 29 0 0 1 2 17c-.6 4.6-2.3 10-5.5 14.3q-2.6 3.3-5 5.6a27 27 0 0 0-3.7 4.6 17 17 0 0 0-2 5.2q.3-2.8 1.5-5.4a24 24 0 0 1 3-4.5c2.2-2.8 4.5-5.3 6-8.1a32 32 0 0 0 0-29.4c-2.2-4.6-5.3-9.2-7.2-12.2q-1.8-2.8-3.2-6.3-1.5-3.4-1.9-6.7t0-5.3l.1-1.6zm-404.9-20.1 6.2 5.5c3.2 2.9 6.4 6.3 7.2 7.6l2.8 4.7a81 81 0 0 1 4 8.7q1.9 5.1 4.1 9.3 2.4 4 4.3 6.5 1 1.2 2.7 3.7 1.9 2.3 3.8 6.3a11 11 0 0 1 1 4.7 7 7 0 0 1-2.4 4.8l-3.3 2.9q-1.2 1.4-1.3 3.3 0 2 .6 4l1.5 3.8c1 2.5 2 5.1 1.7 7.6a8 8 0 0 1-2.3 5.1c-1.1 1-2 1.1-2 1.1a6 6 0 0 0 3-2.7q.8-1.7.8-3.5a14 14 0 0 0-1.7-6.4q-1.6-2.9-2.6-5.7-.9-3 0-5.9.6-1.5 1.7-2.5l2.1-1.9q1-1 1.7-2a5 5 0 0 0 .4-2.6q-.3-2.7-1.9-5-1.4-2.5-3.3-4.7l-3.6-4.4a40 40 0 0 1-4.6-7.4l-3.8-8.5a51 51 0 0 0-3.4-6.6 264 264 0 0 0-8.7-13l-3.4-4.9zM280 379l1.5 3.5c.9 1.8 1.8 3.7 1.9 4.3a37 37 0 0 0 4.1 12.8 77 77 0 0 0 6.6 10.4 47 47 0 0 0 6.7 7q-5.4-3-8.6-6.9-3.1-3.7-6-7.9l-1.4-2q-1-1.5-1.9-3.4a57 57 0 0 1-2.5-7.2 26 26 0 0 1-.5-10.7"/><path fill="#913930" d="m304.6 349.6 1.2 1.1a14 14 0 0 1 3.8 7.5q.4 2.2.2 3.1-.1 1-1.2 4-.6 1.5-2 3t-3 2.5l-3 2-2 2.1a25 25 0 0 0-3.4 11.8q-.2 2.6.7 5.1 1.1 2.4 3.7 3.6 2.8 1.2 5.6 2 2.8 1 4.9 2a14 14 0 0 1 3 2.3l.8.8.2.3a18 18 0 0 0-8.6-4.3c-2.9-.7-5.7-1.1-8-2.5a8 8 0 0 1-3-3 11 11 0 0 1-1.3-3.8 28 28 0 0 1 1-12q.8-2.7 3.2-5.5c1.6-1.7 3.7-2.9 5.2-4q1.2-.9 1.8-1.8t1-1.8a21 21 0 0 0 .8-9.7l-1-3.5-.4-1zm-10.9-22.7a14 14 0 0 0 .7 3.6c.2 2 0 4.3-.3 4.8l-2.6 5.9c-1.2 2.6-2.1 5.7-2.7 7.2a46 46 0 0 0-3 11.9l-.3 6.8v3q-1.4-6-1-11a63 63 0 0 1 3-16c.8-2.6 2-5.3 2.5-7l2.5-6.2q.6-1.3.8-2.2zM667.6 413l1.3 2.1c.7 1 1.6 1.9 1.6 2.1q0 .7.8 2.8l1.6 3q.1.5 1.2 1.8a11 11 0 0 0 7 3.7q-3 .6-5.5-.4-2.4-1-4.3-2.9-.8-.7-2-2.6l-2-3.7a6 6 0 0 1-.4-4z"/><path fill="#27201a" d="M324.9 370.8q-5.4-13.4-7-27.6l.7 6.9q-4-10.7-7-21.7l-1 6.1-.9-9.4-1.8 7.5q0-9-1.4-17.7l-2.7 9.7-.1-10.3-1.6 5c-.2-10.8.2-21.6-.4-32.3-.6-11.3-2-22.9-2-34.3l-.6 8-.2-11-1 4.3q-1.7-16.5.4-32.9l-1.3 5.5.1-6.8-.4 6.3c-3-12-4.3-25.3 0-37 3-8 6.2-16.3 8.2-24.5 1.8-7.3 6.8-23.4 13-32.8s14.6-19 14.6-19q8-13.9 19.7-24.8l-7.5 6c4.8-6 10-9.6 15.8-14.6 14.2-12.3 36-25.2 41-28.5 5.2-3.3 15.3-7.6 50.2-16.4s56.5-3.3 56.5-3.3l-9.4-3.5s15.8-.4 39.2 11.3a751 751 0 0 1 68.4 41s15.2 8.3 30.9 24.3c9.8 10 16.8 21.8 25 33.2l-2.4-5.8c4.4 3.8 7.4 9.2 8.3 14.9a6 6 0 0 0 3.7-2l-1.3 4.7 3.4-.6-1.6 4a56 56 0 0 1 12 10.9l-4.6-2.8c6.3 3.8 11.3 14.6 13.4 21.2 3 9.5 3.7 20.3 3.7 30.1l-2.4-6a74 74 0 0 1 2.5 19.2l-1.3-8.8-4.5 64.7c-.7 10.8 5 19.5 7.5 30l-2.4-4.1 2.1 12.2-2.7-7a22 22 0 0 1-1.2 15.5s-4.8 5.5-12.1 20.8-10.4 20.8-11.1 22.6l-1.8 4.8-1.4 6.3s1-36.5-1.3-50.7c-2.6-15.1-2.8-30.3-5.4-45.4l-.3 12.5c0-4.7-4-11.8-5.3-16.5a309 309 0 0 1-10.7-53.9c-2.1-19.3.8-42.9-20.5-52.4l7.5 1a15 15 0 0 0-10.8-4l9-.7q-16.9-4.5-34.3-3l13-3.7a38 38 0 0 1-38.3-7.5 44 44 0 0 0 19.7 7c7 .3 14.7-3.3 17-10a62 62 0 0 1-44 4.1c-10.6-3.7-21.6-7.7-27.4-19.6a46.4 46.4 0 0 0 56 13.1c-18.7 3.8-40.2 2.3-53.7-13.4a35 35 0 0 0 38 9c-5.8 3.2-12.9 2.6-19 .4-6.2-2.2-11.7-5.9-17.4-9a92 92 0 0 0-56.1-11l12.1 3.1q-11.4-3-23-2.4l12.3 3.7a99 99 0 0 0-75.2 18c-18.4 13.7-32 34-52.7 44.2-5.5 2.8-8.9 8.7-11.2 14.5l5.1-5.3-7.9 13.7 5.6-7.5a49 49 0 0 0-5.2 13.5l3-6.3q-2.7 16-10 30.5 4-3 6.5-7.5l-7.5 12.1 5-6.6q-3 7.7-7.8 14.3l5.4-6.5a159 159 0 0 0-12.3 45s1 24.6 1 41.6 1 34.7 1 34.7z"/><path d="M430.2 308.5c-10.2.8-20.5 2.6-30.7 3.8l-15.7 1.8c-4.8.6-9.9 1-14.3 3q4.3-2.7 9.3-4A83 83 0 0 0 362 319q5.8-4 12.1-6.6a78 78 0 0 0-23.5 11.6q2.5-3 5.4-6a27 27 0 0 0-6.8 7 62 62 0 0 1 27.5-30c-3.5 2-6.6 5.7-9.3 8.6q6.3-6 14.3-9.4l-6.8 4.6q6-3.8 13-5.6l-7.7 4.2q4-2.1 8.6-3 4.6-.7 9.3-.9l20-.9c6.3-.3 12.6-.7 19-.3 5.6.3 12.2 1 17 4l-5.3-3q5.8 2.2 10.4 6.3l-6.7-6.5a30 30 0 0 1 14.7 18.4 17 17 0 0 0-3.9-3.8l2.7 3.6a49 49 0 0 0-6.7-3.7q1.3 1.6 3.3 2.8c-4.3-2.5-10.8-2.4-15.5-2.5a153 153 0 0 0-16.8.6" opacity=".2"/><path d="M568.4 309.1c10.6.9 21.2 2.8 31.8 4l16.2 1.9c5 .6 10.2 1 14.9 3.1q-4.5-2.8-9.7-4.2 9 2.1 17.5 6.1-6-4-12.6-6.8 13.2 4 24.3 12a58 58 0 0 0-5.5-6.1 28 28 0 0 1 7 7.2 64 64 0 0 0-28.4-31.2c3.6 2 6.8 6 9.6 9a47 47 0 0 0-14.8-9.8l7 4.8a49 49 0 0 0-13.4-5.8l8 4.4a34 34 0 0 0-9-3.1 80 80 0 0 0-9.6-1l-20.7-.9c-6.5-.3-13-.7-19.5-.3-7 .3-14.3 1-19.8 5.9l6.6-6a40 40 0 0 0-12.2 10.3q2.4-6 7.2-10.3a28 28 0 0 0-9.7 12.4q.4-5.4-2.4-10 1.8 6 .8 12-1.5-5.2-5.2-9.3a20 20 0 0 1 4.2 11.1q-.2 1.9-.8 3.8 1.7-2.4 4-4l-2.7 3.8q3.3-2.1 7-3.8-1.5 1.6-3.5 2.8c4.4-2.5 11.1-2.4 16-2.6q8.8 0 17.4.6" opacity=".3"/><path d="M466.7 308.7a23 23 0 0 0-11.7-16.2c2.7 1.5 4.8 4.5 6.6 7q3.1 4.3 5 9.1" opacity=".2"/><clipPath id="l"><path d="M430.2 308.5c-10.2.8-20.5 2.6-30.7 3.8l-15.7 1.8c-4.8.6-9.9 1-14.3 3q4.3-2.7 9.3-4A83 83 0 0 0 362 319q5.8-4 12.1-6.6a78 78 0 0 0-23.5 11.6q2.5-3 5.4-6a27 27 0 0 0-6.8 7 62 62 0 0 1 27.5-30c-3.5 2-6.6 5.7-9.3 8.6q6.3-6 14.3-9.4l-6.8 4.6q6-3.8 13-5.6l-7.7 4.2q4-2.1 8.6-3 4.6-.7 9.3-.9l20-.9c6.3-.3 12.6-.7 19-.3 5.6.3 12.2 1 17 4l-5.3-3q5.8 2.2 10.4 6.3l-6.7-6.5a30 30 0 0 1 14.7 18.4 17 17 0 0 0-3.9-3.8l2.7 3.6a49 49 0 0 0-6.7-3.7q1.3 1.6 3.3 2.8c-4.3-2.5-10.8-2.4-15.5-2.5a153 153 0 0 0-16.8.6" style="overflow:visible"/></clipPath><path d="M410.7 313.5h-7.2c-1.8 0-3.2.4-5 .6-2.2.4-4.6.1-7 .2l-6.6.8-7.6 1c-2.6.3-5.7 1.2-8 2.5q4.9-2.7 9.6-5.6-7.2 2.9-14 6.4 7.5-4 14.4-8.8-11.7 4.8-22.6 11.3 6.3-6.4 14-11.2a49 49 0 0 0-13.6 10q3.1-3.9 5.8-8 2.6-3.8 5.9-6.9 3.4-3.3 7.2-6.4l7.4-5.3q-6.5 5.4-12.6 11.1a146 146 0 0 1 20.8-12.9c2.2-1.1 4.8-2 6.9-3.3-6.7 4.1-13.4 8.3-19.3 13.5q10.3-7.5 22.3-11.5-10.5 5.1-20 12.3a70 70 0 0 1 26-12q-7.5 2.7-15 6.5 7.9-2.8 16-4.4c4.8-.9 9.6-1 14.5-1.5a51 51 0 0 1 25.4 4q-5.1-3.2-10.7-5.7a38 38 0 0 1 14.2 5.4 40 40 0 0 1 7.9 8.6c.6.9 1 2.3 1.8 3q-4.5-4.4-10-7.2 4.6 3.6 8.8 7.8a56 56 0 0 0-10.5-5.7l8.8 7c-16-.9-31.9 4.2-48 4.4" clip-path="url(#l)" opacity=".2"/><clipPath id="m"><path d="M568.4 309.1c10.6.9 21.2 2.8 31.8 4l16.2 1.9c5 .6 10.2 1 14.9 3.1q-4.5-2.8-9.7-4.2 9 2.1 17.5 6.1-6-4-12.6-6.8 13.2 4 24.3 12a58 58 0 0 0-5.5-6.1 28 28 0 0 1 7 7.2 64 64 0 0 0-28.4-31.2c3.6 2 6.8 6 9.6 9a47 47 0 0 0-14.8-9.8l7 4.8a49 49 0 0 0-13.4-5.8l8 4.4a34 34 0 0 0-9-3.1 80 80 0 0 0-9.6-1l-20.7-.9c-6.5-.3-13-.7-19.5-.3-7 .3-14.3 1-19.8 5.9l6.6-6a40 40 0 0 0-12.2 10.3q2.4-6 7.2-10.3a28 28 0 0 0-9.7 12.4q.4-5.4-2.4-10 1.8 6 .8 12-1.5-5.2-5.2-9.3a20 20 0 0 1 4.2 11.1q-.2 1.9-.8 3.8 1.7-2.4 4-4l-2.7 3.8q3.3-2.1 7-3.8-1.5 1.6-3.5 2.8c4.4-2.5 11.1-2.4 16-2.6q8.8 0 17.4.6" style="overflow:visible"/></clipPath><path d="m589.9 312.6 7.2-.1q2.6 0 5 .6c2.3.3 4.7 0 7 .1a78 78 0 0 1 13.5 2c2 .4 4.8.7 6.6 1.8l-9.1-5.4q6.6 3.6 13.6 6.2l-12-7.2c7.1 2.5 14.4 5 21.1 8.6l-16.5-10.7a88 88 0 0 1 17.7 9.4l-1-1q-9.2-8.9-19.5-16.3a98 98 0 0 0-21.7-12.6c6.8 4 13.5 8 19.5 13.1a83 83 0 0 0-22.4-11.1q10.6 5 20 12a71 71 0 0 0-26-11.7q7.5 2.8 15 6.4a103 103 0 0 0-16-4.2c-4.8-.9-9.6-1-14.5-1.4a51 51 0 0 0-25.4 4.3q5.1-3.1 10.6-5.7a40 40 0 0 0-14.1 5.6 42 42 0 0 0-7.7 8.7c-.6.9-1.1 2.2-1.8 3q4.4-4.5 9.9-7.3-4.6 3.5-8.7 8 4.8-3.5 10.4-6l-8.7 7.1c16-1 32 3.8 48 3.8" clip-path="url(#m)" opacity=".2"/><path d="M419.9 308.4q5.8-.9 11.6-1c2.2.2 4.5-.3 6.7-.4h6.2q4.8 0 9.5.6a33 33 0 0 0-8.9-4.8q5.1.7 9.7 3l-10.3-5.8q6 1.7 11.7 4.5-4.9-4.1-10.2-7.5a22 22 0 0 0-11.7-4.2q4.6 1 8.7 3.4a67 67 0 0 0-37.3 1.3l10.5-4.2a90 90 0 0 0-18.9 6.8l11.3-5.8a61 61 0 0 0-16.9 7 117 117 0 0 0-12.3 8c-1.1.8-2.3 2.1-3.5 2.7l12.9-6.1-12 7.2a65 65 0 0 1 14.8-5.3l-12.2 6q20.2-2.8 40.6-5.4m196.1-4.9c-4.5-3-9.3-5-14.2-7.1-2.3-1.1-5-1.3-7.4-1.8-2.7-.4-5.7-1.4-8.3-1.4q7.5 1.8 14.5 4.5a90 90 0 0 0-37.6-3.2 23 23 0 0 0 7.2-2.4q-5.8 1-11.5 2.5l7.8-3.2c-4 .6-9.2 1.2-12.8 3.4a67 67 0 0 0-10.4 7.9q6.1-4.5 13.4-6.6-7 3.5-13.1 8 6.4-3 13.3-4.2l-11.3 7c9.9-.9 19.8.1 29.7 1.2l46.5 4.7a73 73 0 0 1-13-4.9l16.6 3.7q-6.2-2-11.4-6l17.2 7A88 88 0 0 0 603 295z" opacity=".4"/><path fill="#381414" d="M372.6 346.5q0-.2 5.2-5.5a109 109 0 0 1 16.1-12.4q5.7-3.1 12.8-5.6a113 113 0 0 1 23.5-5.5q4.3-.4 8.8.2l1 .3 1.2.3 2 .9a31 31 0 0 1 7.6 5q1.6 1.6 2.6 3.8l-1-1.5q-1-1.5-3.8-3.5a31 31 0 0 0-7.4-3.6q-2.3-.8-5-.8t-5.8.3q-6 .8-13.1 2.6a144 144 0 0 0-22.6 8.3q-3.7 2-7.5 4.7-7.5 5.2-14.6 12M529.5 331l.4-.5 1.1-1.3q1.5-1.6 5.1-4.3a42 42 0 0 1 15.6-6.4q3.3-.9 7.2-1 7.6-.6 16.3 1.4a89 89 0 0 1 17.6 6.2q9 3.7 17.5 10 4.2 3.2 7.4 7.5l3.3 4.3q1.4 2.3 3.7 3.8l-.5-.2-.6-.4-.7-.6-4.1-4.6q-2.5-3.2-6.7-7.1a59 59 0 0 0-11-7q-6.4-3.3-14.5-6.5-8-3.4-17.6-4.9a51 51 0 0 0-30.4 4.8 33 33 0 0 0-9.1 6.8"/><path d="M456.3 346h-13.1s3.3-2.8 2.9-4.2c-.5-1.5-9.4-9.7-15-11.8-5.7-2-17.5-1.8-23.7.4s-14.9 10-14.4 10.5 4.9 3.5 4.9 3.5-5.8-1.6-8-1.4-3.7-.2-4-.2 13.4-12.3 20.4-15a57 57 0 0 1 26.7-1c4 1.9 16.5 13.7 16.5 13.7s8.4 4.9 6.8 5.6m81.3-2.2s.5 1.9 1.2 1.9l12.1-.6s-2.7-4.2-1.4-5.6 8.4-6.2 15.7-8.3 18.8-.8 23.7 1c5 1.7 12.7 9.4 12.3 10-.4.7-4.9 4.3-4.9 4.3s3.8-2 6.4-1.8 6.7 1.4 6.7 1.4-11.9-13-19.5-16-19.5-3.5-26.3-1.3-15.8 8.3-17 9.5c-1.3 1.2-9 5.5-9 5.5"/><path fill="#efc6a8" d="M445.1 345.3q1.5.3 3-.5 1.5-.6 2.6-1.6-.6 1.4-1.8 2.1 2.8.4 5.5.3.5 0 .4-.6l-.5-.6-1.4-.9q-1.5-.9-3-1.4-.6-.3-1.3-.4-.4.1-.6.7-.7 1.1-1.7 2z" opacity=".2"/><path fill="#efc6a8" d="M446.2 345q1.2-.3 2.2-1l.5-.5q.2-.3 0-.7 0-.4-.6-.3c-.2 0-.4.6-.6.8z" opacity=".2"/><path fill="#efc6a8" d="M450 345.2q1.5.2 2.9 0l.4-.2q.1-.3-.2-.6l-.8-.5q-.4-.3-.9-.3c-.2 0-.5.6-.6.7z" opacity=".3"/><path fill="#efc6a8" d="M549.5 344.6a5 5 0 0 1-3-.6q-1.4-.8-2.4-1.7a6 6 0 0 0 1.7 2.2l-5.6-.1q-.5 0-.4-.6l.6-.5 1.4-1 3-1.1q.8-.4 1.4-.3t.6.7q.7 1.1 1.6 2z" opacity=".2"/><path fill="#efc6a8" d="M548.5 344.2q-1.2-.2-2.1-1l-.5-.6v-.7q.1-.4.6-.3l.6 1z" opacity=".2"/><path fill="#efc6a8" d="M544.6 344.2h-2.8l-.4-.3q-.1-.3.2-.6l.9-.5.8-.2c.3 0 .5.6.6.7z" opacity=".3"/><path fill="#ba6a47" d="M368 374.9q4.8-1.7 9.2-4 2.3-1.1 4.3-2.6l1.8-1.4c.5-.4 1-1.4 1.6-1.7l-6 4a68 68 0 0 1-10.8 5.7m2.3 11.4a123 123 0 0 0 25.6-6.2c2.3-.9 4.1-2.6 6.3-3.7-9.4 5.5-21.4 7.2-31.9 10" opacity=".4"/><path fill="#ba6a47" d="M629 352.3c4.1 1.1 8.2 2.3 12.4 2.2 3.5 0 9.2-1.3 11-4.7-2.7.6-5 2.4-7.9 2.8q-7.8 1.2-15.4-.3m4.4 7.9a29 29 0 0 0 17.3.8c-5.7 0-11.8 1.2-17.3-.9m-19.5 5.6-8.9 1.7q11-1.5 21.9-1.9l-9.7-.3" opacity=".5"/><path fill="#ba6a47" d="M619 374.9s-2.9-2.5-12.3-3c-9.4-.7-27-1.2-37.5-4.3s-26-9.5-26-9.5 13.3 7.5 26.5 11.8c13.3 4.3 29.4 4.3 35 4a81 81 0 0 1 14.4 1" opacity=".3"/><path fill="#ba6a47" d="M386.7 369s17.6 4.2 34.4.4 22.3-7.4 26.4-8.3l10.3-2.3s-21 9.9-36 13.3-35-3-35-3" opacity=".2"/><path fill="#ba6a47" d="M467.6 342c1.5 4 2 8.6.4 12.6 4-3.9 4.2-10.5 1.7-15.5s-7-8.6-11.6-11.5c1.7 1 3.6 4.2 4.8 5.9q3 4 4.7 8.6m50.6 8v.6a24 24 0 0 1 4.3-14.5 41 41 0 0 1 23.4-14.4 40 40 0 0 0-21.5 8.1c-5.3 4.2-7.3 13.7-6.2 20.2" opacity=".5"/><path fill="#913930" d="M492 459.7q5 1.3 10.1.2c5.8-1.4 11-7.7 17.5-10.5q5.1-2 10.7-2.3c3-.3 6.2.3 9-1.2 2.2-1.2 4.5-3.7 5.8-5.8 0 0-3.5 5.5-7 7.7-3.6 2.3-10.3 4.6-10.3 4.6s8-3.5 4.3-4a32 32 0 0 0-15.1 3.8c-5 2.7-9.2 6.8-14.8 8.2-6 1.6-10.4-.3-15.8-2.8q2.7 1.2 5.6 2m-40.4-16.1q1.6.7 3.3.8 6.8.3 13.2 2.3c8.4 2.8 16.4 9.5 16.4 9.5s-11.8-6.9-18.2-8.6-8-1-8-1 4.2 2.2 3.8 2.2-9-1.1-13.7-5.3c-7-6.3-3.7-18.6.5-25.5a28 28 0 0 0-4 14.6q.2 3.8 2 7.2 1.6 2.6 4.7 3.8"/><path fill="#913930" d="M537.3 412.8s7.1 11.3 8 18.2c.9 7-1.7 11.1-1.7 11.1s4.3-4 2.4-12.5c-2-8.5-8.7-16.8-8.7-16.8"/><path fill="#381414" d="M410.4 483v-.6c1.4.4 2.3 1.8 3.6 2.4 2.2 1 4.7.3 7 1.2 1.1.5 28.2 5.5 33.6 7.2s27.7 6.4 35 7.5 31.4-4.5 38.2-6 32.5-8.7 38-9 8.3.3 10.8.3 4.4-2.5 4.3-.6-.9 2.7-1 3.2c-.2.5-5.3 5.6-10.4 8.8s-19.1 10.2-25.6 13.6a273 273 0 0 1-36.2 16.5c-12.6 4.1-30.8 2.3-42.4-2.5s-31.8-22-36.4-24.8c-4.6-3-13.2-9.4-15-11.4-1-1.2-3.5-4-3.5-5.8"/><path fill="none" d="M544.1 513.3c.6-.5 1.4-2.2 2-3.3l-2.2 1-4.9 2.6c2 .3 4.1.6 5.1-.3m-94.1 2.5-3.4-2.4 1.2 1.8q.6.4 2.2.6"/><path fill="#fefefe" d="M565.1 485.7c-6.5.8-30.8 7.5-37.3 9-6.8 1.5-30.8 7-38.1 6s-29.7-5.8-35.1-7.5c-3.8-1.2-18.3-4-27-5.8.3 2.7 1 7.9 1.4 9.2.7 1.7 2 3 2 3l.2 2.1 12.3 9.4 1.2-1.4 1.9 3.7 3.3 2.4c2.3.2 5.3 0 5.9-.5.8-.7 1.8-2.3 1.8-2.3s.5 3.2 2 4.2c1.4 1 8.6 2.7 10.3 2.2s3.3-2 3.3-2 .2 2 .8 3.5c.7 1.4 8.5 3.4 15 3s7.4-1 7.4-1l.8-1.7c0 .4.2 1.6 1.6 2.2 1.3.5 16.5-1 17.6-1.6s3.5-3.7 3.5-3.7 6.6.7 9.2-.7a9 9 0 0 0 4.2-4c.4-.9 1-3.8 1-3.8s2.4 3.6 4.4 4h.3l5-2.6 2-1 .6-1.4 1.3.3 13.9-7.2.6-1.5s1.5-1.6 2-2.4c.3-.6 1.6-8.5.7-12"/><clipPath id="n"><path d="M565.1 485.7c-6.5.8-30.8 7.5-37.3 9-6.8 1.5-30.8 7-38.1 6s-29.7-5.8-35.1-7.5c-3.8-1.2-18.3-4-27-5.8.3 2.7 1 7.9 1.4 9.2.7 1.7 2 3 2 3l.2 2.1 12.3 9.4 1.2-1.4 1.9 3.7 3.3 2.4c2.3.2 5.3 0 5.9-.5.8-.7 1.8-2.3 1.8-2.3s.5 3.2 2 4.2c1.4 1 8.6 2.7 10.3 2.2s3.3-2 3.3-2 .2 2 .8 3.5c.7 1.4 8.5 3.4 15 3s7.4-1 7.4-1l.8-1.7c0 .4.2 1.6 1.6 2.2 1.3.5 16.5-1 17.6-1.6s3.5-3.7 3.5-3.7 6.6.7 9.2-.7a9 9 0 0 0 4.2-4c.4-.9 1-3.8 1-3.8s2.4 3.6 4.4 4h.3l5-2.6 2-1 .6-1.4 1.3.3 13.9-7.2.6-1.5s1.5-1.6 2-2.4c.3-.6 1.6-8.5.7-12" style="overflow:visible"/></clipPath><path fill="#7b4d4a" d="M493.9 501s1.8 2 1.8 5.8 1 18 1 18c.7-.2-.9-18 .7-21.5s11.8-7.5 16-5.8 3 2.8 4.2 8.1 1.5 13.7 1.8 14.3 2 .2 2 .2-1.7-.7-1.5-2c.3-1.3-2-12.4 0-17.1 2.1-4.8 7-5.2 9-4.2s2.7 4.7 3.7 9.5 1 9.5 1 9.5l1.7-1.5s-1.1-4-1.1-5.3c0-1.5-1-6.4-.6-9 .4-2.8.2-4.6 1.2-5.1s7.6-2.3 8.5-1c1 1.5 2 7 2.2 12s-.2 8-.2 8 3.7-1.5 3.4-1.8c-.2-.4-1.5-3-1.5-3.7 0-.6-.8-7 .1-9.4s3.4-6.7 4.4-6 1 .6 1.8 5.9 1 10 1 10l1.9-1.1s-1.2-1.5-1.2-2.3-1-7.4.1-9.4 3.8-7.1 5-5c1.1 2 .6 13 1.6 12.6s8-10.5 7.5-14.9 3.5-12.5-6.6-14.4-37.3-1.8-37.3-1.8-82.9 1.9-91.9 4c-9 2.3-10.5 4-8.9 13s2.6 13.6 4 14.7q2.3 1.8 2.8.5c.3-.7-1.1-13.4.3-14.4s2.5 1 3.4 2.8.9 13 1.4 13.6 1 1.4.9.7c-.2-.6-1-13.5 0-14.8s3-3.4 4.5 1.3c1.5 4.6 2 4.5 2.3 8.4.4 3.8.7 11 1.2 12.1s2.2 2.6 2.2 2.6-1.7-2.5-1.6-3.9-1.2-12.6-.1-16.6 8-3 9.1-.8c1.2 2.2 1.7 3.2 1.9 9 0 5.8-.7 11.1 0 12.8.9 1.7 4 2.9 4 2.9s-3.4-4-3.4-5.7.5-12.2 2-14.6c1.4-2.5 3.3-6 7-3.5 3.5 2.4 5.3 4.4 5.6 9.2s0 11.3.2 12.6 1 4.8 1.2 5-.5-5-.3-7 1-11.1 1.5-13c.5-1.8 7-5.6 7-5.6l6.5 1" clip-path="url(#n)" opacity=".4"/><path fill="#ba6a47" d="m444.7 509.7-1.2 1.5 3 2.2c-.9-1.6-1.8-3.7-1.8-3.7"/><path fill="#fefefe" d="M507.7 527.5a239 239 0 0 0 31.3-14h-.3c-2-.3-4.3-3.9-4.3-3.9l-1 3.8c-.4 1-1.7 2.7-4.3 4-2.6 1.4-9.2.7-9.2.7s-2.3 3-3.4 3.7-16.4 2.1-17.7 1.6a3 3 0 0 1-1.6-2.1l-.8 1.6s-.9.7-7.4 1-14.3-1.5-15-3c-.6-1.4-.7-3.6-.7-3.6s-1.7 1.7-3.4 2.2c-1.7.4-8.8-1.3-10.3-2.3-1.4-1-2-4.2-2-4.2s-1 1.7-1.8 2.3c-.5.5-3.6.8-5.8.5 5.4 3.9 11 7.4 15.3 9.2a69 69 0 0 0 42.4 2.5M546 510l2-1-1.4-.4z" opacity=".6"/><clipPath id="o"><path d="m562.4 500.3 2-2.4c.3-.7 1.6-8.6.7-12.1-6.5.7-30.8 7.4-37.3 9-6.9 1.4-30.8 6.9-38.2 5.9-7.3-1-29.6-5.8-35-7.5-3.8-1.2-18.3-4-27-5.8.3 2.7 1 7.9 1.4 9.2.7 1.7 2 3.1 2 3.1l.2 2c7 5.2 24 19 34.1 23.3a69 69 0 0 0 42.4 2.5c12.6-4 29.7-13 36.2-16.5l17.8-9.2z" style="overflow:visible"/></clipPath><path fill="#d1725c" d="M496.3 507.8s1.2-5 3.3-6.2 14.2-2.6 15.3-2 3 5.3 3 5.3 1.2-6.5 3-7.6c1.9-1.2 7.2-2.1 8-1.5s2.6 5.3 2.6 5.3 1-5.6 2.6-6.7c1.6-1 8.6-2 9.7-1.2 1.2.7 2.3 6.5 2.3 6.5s3.6-7.6 5.4-7.4 2.6 5 2.6 5 4.8-7.8 5.7-6.6c1 1.1 1 3.2 1 3.2s7-6 7.2-6.5l-.3-10.5c-.3-.7-103 3-114.2 2s-30.5 1.3-30.6 5.5 3.8 8.8 3.8 8.8.5-4.1 1.4-4 2 .7 2 1.3.8 3 .8 3 1.1-3 1.8-3.2 1.9 2 2.5 2.9c.5.8 1.9 4.2 1.9 4.2s.6-4 2.3-4.1c1.6-.2 2.4 1.4 3.7 4l2.5 4.9s-1-7 1.2-7.7 5.6.7 6.5 2l5.3 7.8s1-5 2.4-6 5.2-.4 7.3 1 5.8 7.4 5.8 7.4 1.7-5.6 4.3-6c2.7-.4 13.5.5 14.8 1.4 1.2.8 3 5.7 3 5.7" clip-path="url(#o)"/><path fill="#913930" d="M451.2 414.9q3.8-2.8 8.3-3.6 4.6-.7 8.7 1.8c-.8-4.8-4.7-8-9-5.6-3.3 1.9-5.1 5.4-8 7.4m80.3-11.3c-3.1 2.7-5.2 8.7-7.7 12q3-2.1 6.6-3c3.6-1 5-.5 7 1 0 0 4 4.9 6.8 12.2 3 7.4 1.3 11 1.3 11s2.3-7.4 9.7-6.6c7.4.7 32.2 18.7 32.2 18.7s-25.5-23.2-34-31.7-22-13.6-22-13.6" opacity=".3"/><path fill="#913930" d="M584.1 458.5s17.2 14.7 17.9 20.3c.7 5.5-3.8 17.3-3.8 17.3s6.7-11.4 4.8-19.6-18.9-18-18.9-18" opacity=".4"/><path fill="#913930" d="M408 455.8q1.5-2 3.5-4a84 84 0 0 1 21.8-17.2 47 47 0 0 0-17.5 10.6 126 126 0 0 0-12.3 13.5c-3.4 4.2-7.5 7.8-10 12.6-3.5 6.6-3.3 9.7-3.2 12.7.2 3 4.7 16 4.7 16a104 104 0 0 1-2.8-15.8q-.3-4.7 1.5-9.3c1-2.8 2.9-5 4.7-7.4q4.5-6 9.5-11.7" opacity=".3"/><path fill="#913930" d="M407.5 455.4a64 64 0 0 0-14 16c-3.5 6.5-3.4 9.6-3.2 12.6s4.7 16 4.7 16a104 104 0 0 1-2.8-15.8c-.7-7.6 3.5-14.2 8-20.1 2-2.9 5-6 7.3-8.7" opacity=".5"/><path fill="#913930" d="M574.7 450.9c.5.3 19.6 15.7 24 22.1s3.8 10.2 3.8 10.2 3-4.9-1-11-26.8-21.3-26.8-21.3m20.6 92.1c6.4-12.8 16.5-23.3 25.2-34.7a62 62 0 0 0 11-18.5q3.7-11.1 6.4-22.4c-3.2 6.3-6.5 13-10.4 18.9-4.2 6.3-9 12-13.3 18.3-8 11.9-15.6 24.4-19 38.5M496 481.2a24 24 0 0 0 14.3-4.6c.7-.5 2.8-2.6 3.5-2.7-11.5 1.1-22.6 2.9-34.2.5a24 24 0 0 0 16.5 6.8" opacity=".3"/><path fill="#913930" d="M441.7 544.7c.6.2 33.3 13.5 59.8 10.7 26.4-2.8 49.4-20 48.6-19.2s-11.7 29.3-25 35.7-45 4-55.5 2.2-27.9-29.4-27.9-29.4" opacity=".1"/><path fill="#913930" d="M534.1 457.7c3-2.2 6-4.8 8-8q1.3-2.2 1.8-4.6c.3-1.2.2-4.9 1-5.7-2.5 4-6.7 8.7-11.8 8.5-2 0-3.9-.5-5.9-.5-4.1 0-8 2-11.5 4.3-3.4 2.3-6.6 5-10.4 6.7-4 1.8-8 2-12.3 1.6-3.8-.5-6.2-3-9.3-5.2a54 54 0 0 0-23-10.2c-3.5-.5-7-.4-10.3-1.6s-6.3-4-6.2-7.5c0 6 4 11.3 8.9 14.7s10.7 5 16.4 6.9a47 47 0 0 1 16 7.5c2.2 1.8 4.2 4.5 3.1 7-.7 1.6-2.4 2.6-4.1 2.8s-3.5-.2-5.2-.6q5.5 5.3 13 7c5.5 1.1 11.5.8 16.3-2.2 4.1-2.6 7-6.9 10.5-10.2 4.4-4.2 10-7 15-10.7" opacity=".2"/><path fill="#ba6a47" d="M415.9 435.6a123 123 0 0 0-28.4 25 30 30 0 0 0-6.4 14.3c-.7 6.5 1.9 13 5.7 18.3 3.5 4.8 8 8.9 12 13.3q-2.2-8-1.6-16.3c.2-1.9.7-4 2.5-4.5 1.2-.4 2.5.4 3.5 1q5.6 3.6 10.7 7.8a9 9 0 0 1 9.2-7.2l-13.1-7.1c-3-1.7-6.3-3.5-7.5-6.7-1.7-4.5 1.1-9.3 4-13a106 106 0 0 1 37.5-29.6l-.2 2.3a31 31 0 0 1 14.8-25.6c-15.2 8.1-28.8 18-42.7 28" opacity=".2"/><path fill="#fefefe" d="M444.4 409.2a26 26 0 0 0 9.8-15.3c1.2-7.9 2.5-15.2 1.7-23.2a97 97 0 0 1-38.3 15.6c-10.2 1.7-20.4 2.3-30.6 4a32 32 0 0 0-16.5 6.2c-5.2 4.5-7.3 12-7 18.9s2.6 13.6 5 20.1c1.4 4 3.4 8.6 7.5 9.5 3 .7 5.8-.7 8.5-2.1l41-21.8c6.6-3.5 13.3-7 19-12" opacity=".1"/><path fill="#fefefe" d="M448.6 435.9c1.2.8 2.7.7 4.2.6l7.5-.5c1.7 0 3.6-.3 4.7-1.6s1-3.2 1-5c-.4-4.6 1.5-16.5-5.5-17-4.8-.5-9.3 5.6-11.5 9-2.3 3.3-4.6 11.7-.4 14.5" opacity=".2"/><path fill="#fefefe" d="M504.6 408.2q-.3-5.3-.2-10.7.1-22.6-.4-45.3c-.1-4.5.8-11.7-3.2-14.8a6 6 0 0 0-7.6.3c-3.8 3.8-3.3 12.7-3.3 17.6q0 10.5.4 21.2c.3 11 2 23.6-.3 34.6-1.8 8.8-4.4 16.4-3.3 18.6s8 8.7 12.4 7.3 5.1-2.2 7.3-5.5-1.5-17.5-1.8-23.3M392.9 190c-3.2 3-6.4 6.6-7 11-.9 6.6 4.3 12.3 9.4 16.5s11 8.5 12.4 15c1.5 7-2.8 13.8-7 19.7l-22.3 32c14.7-2.1 29.5-4.2 44.3-3.8 14.9.4 30 3.5 42.7 11.1 3 1.8 7 3.7 9.6 6 1.6 1.6 2.4 3.7 4.3 5.1 3.8 3 9.2 3.7 13.9 2.8 6.6-1.3 12.4-5.3 18.4-8.5 24.5-13 53.4-13.2 81.1-13.2.9-8-1.5-16.2-6.4-22.6-4.3-5.5-10.5-9.5-14.9-15-7-8.8-8.8-21-5.7-31.8a44 44 0 0 1 20.7-25.2c-10.5-17-29.6-27.4-49.1-31.8a171 171 0 0 0-37.7-3.3c-11.7.1-24-.3-35.5 1.4a132 132 0 0 0-71.2 34.6" opacity=".1"/><path fill="#913930" d="M673 387c-1-5.9.5-12 3-17.4 1.9-4.1 4.5-7.6 6.8-11.4 2-3.2 3.2-6.8 5.3-10-1.3 2-1 4.7 0 6.8q1.6 3.2 4.2 5.8a30 30 0 0 1 6.4 10.5q1.6 5.6-.5 11.1c-1 2.8-3.4 4-4.7 6.5-1.2 2.5-.6 5.5-1.4 8.1a10 10 0 0 1-5.5 5.7 30 30 0 0 1-7.7 2 7 7 0 0 0 2-5.6c0-2-1-4-1.9-5.9a37 37 0 0 0-7.2-9.4m20.8-40.8a53 53 0 0 0 11.3 25c.3-7-1.3-13.6-2.3-20.3q-.7-4.8-1-9.4c-.2-1.2-.7-6.8 0-7.4a27 27 0 0 0-7.1 8" opacity=".4"/><path fill="#fefefe" d="m487 534.8 1.3 4.3c0-1.8 1.5-3.2 3-3.8s3.4-.7 5.1-.8c15.2-.8 29.6-7 43.5-13a25 25 0 0 1-11.4 11.8 66 66 0 0 1-45 8c-2.5-.4-3.7-.7-1.6-3q2-2.4 5-3.5" opacity=".2"/><clipPath id="p"><path d="m487 534.8 1.3 4.3c0-1.8 1.5-3.2 3-3.8s3.4-.7 5.1-.8c15.2-.8 29.6-7 43.5-13a25 25 0 0 1-11.4 11.8 66 66 0 0 1-45 8c-2.5-.4-3.7-.7-1.6-3q2-2.4 5-3.5" style="overflow:visible"/></clipPath><path fill="#fefefe" d="M494.6 529a4.3 4.3 0 0 0-1.1 5.4c1.9 3.3 7.3 1.4 10.4 1.6 10 .6 20-2 28.5-7.4-.1 2.1-1.7 3.8-3.3 5.1a55 55 0 0 1-54.4 9.4c-2.4-.9-4.9-2-6.1-4.3-1.7-3-.2-7.3 3-8.6" clip-path="url(#p)" opacity=".3"/><clipPath id="q"><path d="M507.7 527.5a239 239 0 0 0 31.3-14h-.3c-2-.3-4.3-3.9-4.3-3.9l-1 3.8c-.4 1-1.7 2.7-4.3 4-2.6 1.4-9.2.7-9.2.7s-2.3 3-3.4 3.7-16.4 2.1-17.7 1.6a3 3 0 0 1-1.6-2.1l-.8 1.6s-.9.7-7.4 1-14.3-1.5-15-3c-.6-1.4-.7-3.6-.7-3.6s-1.7 1.7-3.4 2.2c-1.7.4-8.8-1.3-10.3-2.3-1.4-1-2-4.2-2-4.2s-1 1.7-1.8 2.3c-.5.5-3.6.8-5.8.5 5.4 3.9 11 7.4 15.3 9.2a69 69 0 0 0 42.4 2.5" style="overflow:visible"/></clipPath><path fill="#381414" d="M450.4 514.1c1.2 0 5.5 3 5.5 3s3.2-2.6 4.4-2.6 66.3-1 69.7-.7c3.4.2 5 2.6 6.2 1.7s6.2-6 7.9-5.2 7.1 2.6 7.2-.4 9-4.5-2.1-5.2-17.2-1.4-28.2.8-33.1 5.3-44.7 4.6c-11.6-.6-33.3-4-36.4-3.8" clip-path="url(#q)" opacity=".6"/><path fill="#381414" d="M457.6 445.4c4-.4 8.5.3 12.4 1.9 6 2.4 9.8 6 9.8 6s-3.5-2.5-8-4.4q-3.7-1.4-7.5-2.3-1.5-.5-3-.6c-1.2-.1-2.5-.6-3.7-.6m54.2 9.4s6.7-5.8 13.3-6.9c6.6-1 8 0 8 0s-7.4 1-11.6 2-9.7 5-9.7 5"/><path fill="#ba6a47" d="M544.7 432.4c0 4 .6 6.8-2 10.3-2.3 3.2-4.5 4.8-8.7 5-2.3.2-4.7 0-7 .4-4.4.6-8.3 3-12 5.6s-7.3 5.2-11.5 6.6c-3.4 1.1-9.1 1.6-12-1.3-2.3-2.5-4.1-7-5-10.2 4 2.2 8.9 1.7 13 0s7.7-4.5 11.4-7 7.7-4.9 12.2-5.5a7 7 0 0 0-2 4.2c4.7-1.3 9.6 2 14.5 1.7s9.1-4.9 9.1-9.8" opacity=".4"/><clipPath id="r"><path d="M507.7 527.5a239 239 0 0 0 31.3-14h-.3c-2-.3-4.3-3.9-4.3-3.9l-1 3.8c-.4 1-1.7 2.7-4.3 4-2.6 1.4-9.2.7-9.2.7s-2.3 3-3.4 3.7-16.4 2.1-17.7 1.6a3 3 0 0 1-1.6-2.1l-.8 1.6s-.9.7-7.4 1-14.3-1.5-15-3c-.6-1.4-.7-3.6-.7-3.6s-1.7 1.7-3.4 2.2c-1.7.4-8.8-1.3-10.3-2.3-1.4-1-2-4.2-2-4.2s-1 1.7-1.8 2.3c-.5.5-3.6.8-5.8.5 5.4 3.9 11 7.4 15.3 9.2a69 69 0 0 0 42.4 2.5" style="overflow:visible"/></clipPath><path fill="#913930" d="M455 515s0 3.2 1.2 5.5c1.1 2.1 4.2 3.6 6.3 4.5 1 .4 2.1 1 3 .3 1.2-.9 1.5-3.7 1.6-5 0 2-.7 5.1 1 6.5 1.8 1.3 4.4 1.7 6.5 2.2 1 .3 2.9 1 4 .8 1.7-.5 2.3-3.9 2.7-5.5-.3 2.5-1 6 2 6.6 2 .5 4 .2 6 .2 1.2 0 2.9.3 4-.2 1.8-.7 2-4 2.2-5.6-.1 1.3-.2 4 1.2 4.8.9.5 2.7.1 3.7 0 1.6-.1 6.6-.2 7.7-1.7.6-1 1.2-6.8 1.2-6.1s-.2 4.7 1.2 5.1 9.4-1.9 11-3.2 3.1-3.7 3-4.4-5.5-1.5-5.5-1.5-1.3-.5 2.2-1.6c3.5-1 17-10.7 18.3-6.5s10.2 10.8-1.3 16.7-11.2 9.9-27.2 11-35.2 4.3-46.2-2.2-27.8-20.7-24-23.3" clip-path="url(#r)" opacity=".4"/><path fill="#fefefe" d="M454 479c-5.7-.7-11.7-.2-17.4.3q-9.9.8-19.8 0l22.5-1.7c6.6-.5 13-1.4 19.7-.7 8.6 1 28.8 7.2 31.8 7.8s7.6.2 7.6.2-4.5 2-8.5 1.3-27.9-6.3-36-7.3" opacity=".1"/><path fill="#fefefe" d="M495.8 339.5s-3.4 1-4 4.3 2 50.5 2.6 53.5 1.7 10.6 4 9 5-59.5 3.7-62.9c-1.4-3.3-5.3-5.3-5.3-5.3" opacity=".2"/><path fill="#fefefe" d="M537.7 582.7q-6 10-13.6 18.9a70 70 0 0 0 25.1-12.8c-5.9 12.5-17.7 21-29 28.8-7 4.8-18 6.3-26.4 6.5-9.7.1-19.4-2.4-27.6-7.8a47 47 0 0 1-19.3-24.5c4.3 3.3 11.5 9.7 17.3 9.8q4-.1 5.3-4.3c.3-1.2-1.1-11.5-2.3-11.7 23.6 2.9 48.3 5.6 70.5-2.9m77.4-155c8.3-4.7 13-13.1 13-22.5.2-10.6-3.8-15.2-14.5-15-6.4 0-12.9-1.7-19.2-1.2-5.3.4-10 1-15.4.3-3-.4-36.9-9.2-35.6-11.3-2.3 4-1.7 9.2.5 13.3a41 41 0 0 0 9.2 10.4l16 14.5c6 5.5 12.3 11 20 13.8 8.5 3 18.3 2.2 26-2.3" opacity=".1"/><path fill="#fefefe" d="M323.2 417.6c-3 2.3-10.5-.6-12.5-3.1-1.8-2.4-3.2-10.7-7.4-10.2-2.9.4-2.9 5-2.7 7a12 12 0 0 0 6.5 9.5c5.8 3.2 11.3.4 16-3.2" opacity=".3"/><path fill="#fefefe" d="m318 391.2 1.5 8c.2.6.6 1.4 1.1 1q.3 0 .4-.5l4.8-13.2q.4-.8 0-1.6c-.3-.7-1.4-.6-2.1-.3-2.8 1-5.3 3-6.6 5.7" opacity=".2"/><path fill="#fefefe" d="M312.5 351.6q.4 1.4 1.5 2.4 1.6 1.4 2.5 0c.7-.7.4-1.9 0-2.8-5-11.5-13.3-26.7-24-33.7-1 4 7.2 11 9.4 14.2a95 95 0 0 1 10.6 19.9" opacity=".4"/><path fill="#fefefe" d="M542 334a59 59 0 0 1 15.8-7q4.4-1.4 9-1.5c2.2-.2 6.1-.9 8.3 0q-9-3.5-18.1-1.6c-5.7 1.3-11 6-15 10m-105.3-9.3q8.3 6.8 16.3 14c-.6-.6-1-2-1.4-2.6l-1.5-2.5c-1-1.4-1.9-3-3.3-4a35 35 0 0 0-10.1-5" opacity=".2"/><clipPath id="s"><path d="M324.9 370.8q-5.4-13.4-7-27.6l.7 6.9q-4-10.7-7-21.7l-1 6.1-.9-9.4-1.8 7.5q0-9-1.4-17.7l-2.7 9.7-.1-10.3-1.6 5c-.2-10.8.2-21.6-.4-32.3-.6-11.3-2-22.9-2-34.3l-.6 8-.2-11-1 4.3q-1.7-16.5.4-32.9l-1.3 5.5.1-6.8-.4 6.3c-3-12-4.3-25.3 0-37 3-8 6.2-16.3 8.2-24.5 1.8-7.3 6.8-23.4 13-32.8s14.6-19 14.6-19q8-13.9 19.7-24.8l-7.5 6c4.8-6 10-9.6 15.8-14.6 14.2-12.3 36-25.2 41-28.5 5.2-3.3 15.3-7.6 50.2-16.4s56.5-3.3 56.5-3.3l-9.4-3.5s15.8-.4 39.2 11.3a751 751 0 0 1 68.4 41s15.2 8.3 30.9 24.3c9.8 10 16.8 21.8 25 33.2l-2.4-5.8c4.4 3.8 7.4 9.2 8.3 14.9a6 6 0 0 0 3.7-2l-1.3 4.7 3.4-.6-1.6 4a56 56 0 0 1 12 10.9l-4.6-2.8c6.3 3.8 11.3 14.6 13.4 21.2 3 9.5 3.7 20.3 3.7 30.1l-2.4-6a74 74 0 0 1 2.5 19.2l-1.3-8.8-4.5 64.7c-.7 10.8 5 19.5 7.5 30l-2.4-4.1 2.1 12.2-2.7-7a22 22 0 0 1-1.2 15.5s-4.8 5.5-12.1 20.8-10.4 20.8-11.1 22.6l-1.8 4.8-1.4 6.3s1-36.5-1.3-50.7c-2.6-15.1-2.8-30.3-5.4-45.4l-.3 12.5c0-4.7-4-11.8-5.3-16.5a309 309 0 0 1-10.7-53.9c-2.1-19.3.8-42.9-20.5-52.4l7.5 1a15 15 0 0 0-10.8-4l9-.7q-16.9-4.5-34.3-3l13-3.7a38 38 0 0 1-38.3-7.5 44 44 0 0 0 19.7 7c7 .3 14.7-3.3 17-10a62 62 0 0 1-44 4.1c-10.6-3.7-21.6-7.7-27.4-19.6a46.4 46.4 0 0 0 56 13.1c-18.7 3.8-40.2 2.3-53.7-13.4a35 35 0 0 0 38 9c-5.8 3.2-12.9 2.6-19 .4-6.2-2.2-11.7-5.9-17.4-9a92 92 0 0 0-56.1-11l12.1 3.1q-11.4-3-23-2.4l12.3 3.7a99 99 0 0 0-75.2 18c-18.4 13.7-32 34-52.7 44.2-5.5 2.8-8.9 8.7-11.2 14.5l5.1-5.3-7.9 13.7 5.6-7.5a49 49 0 0 0-5.2 13.5l3-6.3q-2.7 16-10 30.5 4-3 6.5-7.5l-7.5 12.1 5-6.6q-3 7.7-7.8 14.3l5.4-6.5a159 159 0 0 0-12.3 45s1 24.6 1 41.6 1 34.7 1 34.7z" style="overflow:visible"/></clipPath><path fill="#685955" d="M505.7 24.3A177 177 0 0 0 420.1 38l33.7-5-28.8 8.3a159 159 0 0 1 96.5 7.2 179 179 0 0 0-124.8 10.1q16.7-6.8 34.7-9.4l-23.5 7q27.6-7 56-7c-19.2-.8-37.4 9-52.5 20.8s-28.6 26-44.7 36.5c16.3-6.8 29.8-18.7 44-29.2s30.2-20 47.9-20.8L412.4 74l42-8.8a153 153 0 0 0-65.2 31.2 149 149 0 0 1 29-13.7l-17.8 10.7a214 214 0 0 1 59.3-11q-14.2 1-27.6 6c22.5-6.6 48-1.9 66.7 12.3-28.4-13.3-61.9-15.7-92-6.5s-56.4 30-72.4 57a88 88 0 0 1 28.7-26.8L343.7 143q15-13.1 31.8-23.5a143 143 0 0 0-37.5 42.3 174 174 0 0 1 37.7-34.4l-29.3 36.7c-3.5 4.4-7.7 9.1-13.3 9.6-6.8.6-12.9-7.1-10.7-13.6-2.7 6-.7 14 4.7 18-6-2.6-10.1-9.1-9.8-15.6a21 21 0 0 0 13.2 25.1q-6 1.5-11.9.9c15.2 6.6 33.3 3.6 48-4a169 169 0 0 0 38.7-31l-23.5 15.7 23.8-18.4-21.2 11.3a130 130 0 0 1 46.3-30.4 120 120 0 0 0-49.4 19c21.9-19 51.3-29.1 80.3-27.5h-30.9l30.9-2.4a120 120 0 0 0-33-2.5c21.6-4 44.5-1 64.3 8.5a106 106 0 0 0-27-15.3q17.7 1.5 34.7 6.8c10.4 3.3 20.4 5.7 29.7 12q-6.5-7.6-14-14.1c11.9 5.3 22 13.8 33.1 20.3s24.6 11 37 7.3a54 54 0 0 1-28-9 47 47 0 0 0 22.2 7 76 76 0 0 1-42.7-32.4c7.9 6.8 15.8 13.6 24.8 18.8a58 58 0 0 0 29.6 8.8l-18.5-6a101 101 0 0 0 21.5 2c-9.2-1.4-17-7.5-23.8-13.7s-13.6-13-22.3-16.4q21.1 6.8 38.4 20.6A91 91 0 0 0 559 97.6c3.8 2.2 8.4 3.2 12.3 5.3q6 3.3 11.8 7.5c8.6 6.4 16.3 14.9 24.2 22.2l-13.1-20 42.6 32.9a108 108 0 0 1-18.4-19l20 17.4L601 98.5a202 202 0 0 1 45.2 50.5 292 292 0 0 0-31.2-48.6 193 193 0 0 1 35.3 44.7L637 117a100 100 0 0 1 12 16.4c3.4 6.2 6.2 13.6 3.7 20.6a18 18 0 0 0 2-17.1 13 13 0 0 1 1.4 14.4 16 16 0 0 1-12.4 8 19.4 19.4 0 0 0 21-10.5 19 19 0 0 1-13.7 15c6.4-1.7 12-3.3 17.3-7.4 5-3.9 9.2-9.6 12-15.3 4.8-10.2 5-22.5.3-32.7" clip-path="url(#s)" opacity=".5"/><path fill="#685955" d="m584.2 54.3-28-11.6 34 27.6c-29.3-19.1-61-36.8-95.8-40q15 6.3 29.3 14.6a102 102 0 0 0-64.1-11.3c29.4.7 59.8 7.8 82.4 26.7q-24.6-12-51.7-16.2a157 157 0 0 0-56 2.1c16.1-3 33-2.2 48.8 2.4a98 98 0 0 0-78.4 28.8 110 110 0 0 1 92-21.4c-12.8-1.2-26 .7-38.1 5.4q13.8-2.7 27.8-1.6c-18 0-36 4-52.4 11.5l34-4.2a177 177 0 0 0-48 15.6 128 128 0 0 1 72.5-4.5l-33.4 3.2q15.4-.3 30.6 3h-20.5c31.3 9.6 57.8 30.2 83.6 50.4L538 120.3l10.5 9.3a187 187 0 0 0-37-36.2 184 184 0 0 1 54.2 30.6L552 110.8l16.8 10.2a141 141 0 0 0-51.9-34.3l48.8 13.3-36.1-16.5a172 172 0 0 1 58 20.6 210 210 0 0 0-92.9-36.4c17.7-3 35.9 1.1 52.2 8.5s31 17.7 45.6 28l-21.7-18.5A112 112 0 0 1 600 105a163 163 0 0 0-46.7-36 250 250 0 0 1 54.3 29.8l-33-27.2a176 176 0 0 1 40.3 27.1l-22-19.9 48 35.4c-14.5-17-29.1-34.2-46.2-48.8s-36.6-26.6-58.4-32" clip-path="url(#s)"/><path fill="#685955" d="m305 156.6-5.6 18.7c3-7.6 8.7-14.2 15.7-18.5-7.2 10-7.1 24.6.1 34.5q-4.5-1.4-7.8-4.8a20 20 0 0 0 27.8 9.3 29 29 0 0 1-28-.1q-4 11.6-5.6 23.7a27 27 0 0 1 8.3-13.8q-5.3 9.3-6.4 19.8a40 40 0 0 1 13.4-18.2 47 47 0 0 0-8.3 19.7c2-7.3 7.9-13 14.2-17s13.4-7.2 19.5-11.7a104 104 0 0 0-20.5 21.7l17.5-15.4a137 137 0 0 0-17.5 22.2l15.7-18.4a156 156 0 0 0-21.3 38 62 62 0 0 1 17.5-24l-23 42c11.6-9.6 18-24 25-37.2s16-26.8 29.9-32.2c-10.3 14-15.4 31.2-20.3 48q-8.9 29.8-16.4 59.8c-1 4.6.3 10.3.6 15l1 16.6q.6 16.5-.7 33-.7 9-2.4 17.7c-.6 2.7-1.6 6-4.2 6.8-2.8.9-5.5-1.3-7.5-3.3a174 174 0 0 1-41-60.4 115 115 0 0 1-4.5-72" clip-path="url(#s)" opacity=".4"/><path fill="#685955" d="M275.9 205c7.3-23.2 19-45 34.5-63.8.8 6.6-2.4 13.6-3.3 20.1q-.8 5.7-.8 11.4c0 2.2-.8 9 .6 10.7a17 17 0 0 1-3.7-8.1c-.8 4.8 0 9.8 2.2 14.1-4 5.9-6 13-6.5 20-.7 7.2 0 14.3.6 21.4l4.9-11.3a99 99 0 0 0-4.2 17l5.8-13a77 77 0 0 0-4.2 19 48 48 0 0 1 9-18.2l-5.4 16.4a51 51 0 0 1 11.6-18.4c-8.7 17.4-13.2 37-12.9 56.4-.3-6.3 2-12.7 6.2-17.5q-4.2 10.6-5 22 1.3-9.7 6.8-18-2.6 12.3-3.4 24.8c3.5-14.2 9.4-27.9 17.4-40.2q-5.7 13.1-9.5 27c-1 3.7-.8 6-1.2 9.9q3.1-10.7 10.1-19.3a59 59 0 0 0-5.8 20.5q4-10.4 10-19.7l-4.8 19.2 7.6-17.5c-7.5 19.2-10.9 40-10 60.6l2.7-17.3c-.7 24 2 48.1 8 71.4-3.4.7-6.6-1.5-9.2-3.7a166 166 0 0 1-51.5-76.2" clip-path="url(#s)"/><path fill="#685955" d="M352 80.4q-13.7 17-22.2 37 9.2-13 21.9-23c0 6-3 11.5-7 15.8s-8.7 8-13 11.9a84 84 0 0 0-22.7 34.1 62 62 0 0 1 13-20.6q-7 12.4-10 26.4a143 143 0 0 1 57.2-53.2l-24.5 10.7q13.9-10.7 29.3-19a86 86 0 0 0-23.6 11.7c2.8-7.6 8.5-14 15-19a130 130 0 0 1 21.2-12q-10 6.1-17.1 15.5a200 200 0 0 1 37-24.2 160 160 0 0 0-39.9 13.7q22.7-16.1 49-25.8c-16 3.8-31.4 10.2-45.3 18.9a172 172 0 0 1 62.3-37.5 111 111 0 0 0-32.5 8.9l23-11.8c-20.1 4.5-40.2 10-58.3 19.7-18 9.8-34.3 24-43.4 42.5" clip-path="url(#s)" opacity=".5"/><path fill="#685955" d="M355.3 78.9q-9 9.5-15.4 21 11.3-10.1 24.6-17.3c-7.8 5.4-11 15.1-16 23-8.1 12.6-21.4 21.4-28.5 34.5q4.3-6.7 10.9-11a75 75 0 0 0-14.3 19.5c10.1-13 22.6-24.2 36.5-33l-17.8 9.4c15.4-10.6 21.2-32.1 37.8-40.9L358.9 93c5-7.2 12.9-12 20.5-16.6l-15.1 7.4a95 95 0 0 1 18.3-16.3 60 60 0 0 0-15 9.2 200 200 0 0 1 43-31q-23.2 7.5-44.7 18.5" clip-path="url(#s)"/><path fill="#685955" d="M684.4 151.2a42 42 0 0 1-24.5 14.1q5.8-.3 11.4 1.3a38 38 0 0 1-12.6 2.4c5.1-.8 10.6 1.1 14.2 5q-6.2 0-12.5.3c9.6 4.5 17 13.4 19.6 23.7l-11-11.3a52 52 0 0 1 6 41.1q-1.2-12-4.8-23.5c.3 7.3-1.4 14.7-4.8 21.2 3.8-15.6.9-32.8-8-46.2q3.5 9.6 4 19.6-1.7-10.7-7.7-19.8a94 94 0 0 1 1.1 19.3 44 44 0 0 0-15.7-27.8l3.7 10.6c-4-4.6-10.7-6.8-16.7-5.3 5.3 6 7.3 14.4 7.5 22.4s-1 16-1.2 24c-.2 12.4 2.1 24.6 5.4 36.4 1.6 5.4 2.8 10.6 5.2 15.6l8.4 18q-2.6-18.2 0-36.3-.7 10 1.4 20 1.4-17.6 8.3-33.6c-3 18.3.4 36.9 3.7 55.1q-1.9-15.4.1-31 .3 24.2 7.8 47.2l-4.1-37.6 6 38.1q-1-21 1-41.9l2.3 31.4c.2-18.9 4-37.7 10.9-55.3-4.2 23.8-1 48.2 2.2 72.2q-4.6-9.5-7.2-19.7c3.1 12.3 2 26.3-4.9 37.2l.7-14.8L676 340l-.2-17.3-4.4 18.7-.2-19c-4.3 15.5-7 31.4-9.3 47.3a53 53 0 0 0 .8 26 340 340 0 0 0 45-55.1c12.3-20.4 20.3-44 18.3-67.8" clip-path="url(#s)" opacity=".5"/><path fill="#685955" d="M702.9 165.8a28 28 0 0 0-31-1.6q6 6.8 12.4 13.4l-9-5.8A76 76 0 0 1 689 207q-3-10.1-8.5-19.2c4 8.1 5.9 17.4 5.4 26.5q-2.6-9-7.7-16.7c2.9 14.6.3 30.2-7 43.2q2.2-14.7-1.5-29-.2 13-2.3 26 1.2-22.7-5.3-44.3.5 14.4-2 28.9 0-14.8-3.6-29.1l-.5 22.6-4.6-25 .2 12a65 65 0 0 0-5.4-18.6c1.3 4.4.9 8.4.6 12.9-.3 3.8 1.2 7.8 1.8 11.8a83 83 0 0 1 .9 26.8l3-16.9q0 14.3-2.2 28.2l6.5-20.4-1.3 16.8a76 76 0 0 1 7.6-16.6q-.1 19.9 4.1 39.3 0-10.3 2-20.5-.6 12.6 2.3 24.8 0-12.3 1.7-24.5l2.2 20.7 3.5-26.1 2 13.3c1.6-11 1.8-21.7 3.8-32.5q5.9 19.8 4.3 40.3a243 243 0 0 0 2.1 43.1l2.4 21.6-4.9-14.5.6 14.1-1.7-10.9c0 10-2.7 20-7.4 28.7l.3-11.3q-.8 7.4-3.7 14.3v-9.9l-11 36a9 9 0 0 0-.6 4.4c.3 1.5 1.6 2.8 3.1 2.6q1.4-.5 2.4-1.7c11-12.4 22-24.9 30.8-39s15.3-29.8 16.3-46.4" clip-path="url(#s)"/><path fill="#fefefe" d="M671.5 407q2.2-1.4 3.9-3.3a7 7 0 0 0 1.7-4.6c0-2-1.1-3.6-2.2-5.2l-4.2-6.2q-.6-1-1.5-1c-2 .2 1.8 7.8 2.1 9.1.5 1.8 2 10 .2 11.2" opacity=".3"/><path fill="#fefefe" d="M692.3 407.8c2.2-1.3 4.4-3.2 4.6-5.8-1.2 2-2.6 4.1-4.8 4.8s-4.5-.2-6.7 0c-2.6.2-11 5.5-7.5 9q.8.7 1.8 1 2.2 1.3 2.7 3.7c-1-5.7 5.7-10.2 9.9-12.7" opacity=".2"/><path fill="#685955" d="M490.9 103A61 61 0 0 0 457 89.8a53 53 0 0 1 20.7 10.4c-14-7.8-30.8-10-46.6-7a88 88 0 0 0-42.3 21.6c14-9.9 30.5-16.2 47.4-18.4a153 153 0 0 0-29.6 10.8 98 98 0 0 1 60-4.6c-28.8-1.8-58 8.7-79 28.3a82 82 0 0 1 22.3-9.2c-13 4-24.2 12.8-31.1 24.4 16-12.9 35.8-21.1 56.3-23.6q-14.3-.4-28.3 3.2a115 115 0 0 1 56.9-14 83 83 0 0 0-22.2-2c16.8-3 34.3-2.5 50.8 1.7l-19.3-7.5c15.8 1.8 31.3 6.8 45.3 14.6a119 119 0 0 0-22.9-13.3"/><path fill="#685955" d="M332.3 187.1a58 58 0 0 0 40.8-11.7c4-3.3 7.7-7.6 12.1-10.2l-20.4 12 23.2-20.5q-11 5.6-20.7 13a162 162 0 0 1 50.7-35.9 123 123 0 0 0-54.2 31.7c13.8-22 35.9-37.8 59-50.1-8.6 3.3-17.1 6.7-25.1 11.2s-15.5 10.1-21.2 17.3q15.1-16 33.9-27.5a107 107 0 0 0-39 26l22.1-23.6a48 48 0 0 0-17 13.3 108 108 0 0 1 26.8-26.1q-3.8 2.2-7.5 4.7a113 113 0 0 0-37.6 43.4 58 58 0 0 1-5.2 8.1c-1.7 2.3-4.1 6-6.7 7.5a55 55 0 0 0 16.3-13.9c-2.7 5-5.6 9.9-9.6 13.9s-9 7-14.6 7.7-11.6-1.3-15-5.8a18 18 0 0 0 12.4 9c-7 2.2-15.2-.6-19.4-6.6a29.5 29.5 0 0 0 41.5 3.6c-3 3.6-7.3 6-11.8 7.3-4.5 1.4-9.2 1.8-13.8 2.2"/><path fill="#edc09b" d="M545.5 353.5c.7-.4 5.2 1.8 6.2 2a69 69 0 0 0 34.6 1.3c4-.9 8-3.6 11.7-5.4-6.6 0-12.6 2-19.2 2.4a95 95 0 0 1-21.9-1c-3.8-.6-8-1.4-11.4.6"/></g><path d="M510.4 888.7q-.8.4-.7 1.3.4.9 1.3.8 1-.2 1.1-1.1t-.8-1.3c-.5-.2-1.2.4-1 .9" clip-path="url(#a)" opacity=".4"/><path d="M508 892.6q-1 .4-.8 1.3c.2 1 .8.9 1.3.8s1-.6 1.1-1.1q.1-1-.8-1.3c-.5-.2-1.1.4-1 .9" clip-path="url(#a)" opacity=".4"/></g></svg>