<?xml version="1.0" standalone="no"?>
<!DOCTYPE svg PUBLIC "-//W3C//DTD SVG 20010904//EN"
 "http://www.w3.org/TR/2001/REC-SVG-20010904/DTD/svg10.dtd">
<svg version="1.0" xmlns="http://www.w3.org/2000/svg"
 width="700.000000pt" height="700.000000pt" viewBox="0 0 700.000000 700.000000"
 preserveAspectRatio="xMidYMid meet">
<metadata>
Created by potrace 1.14, written by Peter Selinger 2001-2017
</metadata>
<g transform="translate(0.000000,700.000000) scale(0.100000,-0.100000)"
fill="#000000" stroke="none">
<path d="M3660 6840 c9 -5 -11 -8 -58 -5 -123 6 -277 -21 -497 -86 -109 -32
-162 -57 -270 -126 -145 -92 -273 -199 -325 -270 -225 -307 -233 -321 -286
-492 -20 -64 -44 -140 -55 -170 -27 -72 -34 -155 -19 -221 7 -30 13 -93 15
-140 1 -47 7 -115 13 -151 7 -37 15 -134 18 -216 l7 -150 -46 1 c-60 1 -76
-16 -83 -85 -2 -30 -19 -101 -36 -159 -28 -91 -32 -120 -32 -215 0 -175 16
-281 50 -333 42 -64 176 -236 197 -252 58 -46 127 -33 167 32 l18 30 7 -58 c4
-33 9 -68 11 -79 2 -11 13 -72 24 -135 24 -132 62 -264 95 -330 14 -28 25 -71
28 -112 l5 -65 -682 0 c-727 1 -742 0 -790 -48 -42 -42 -45 -87 -31 -480 12
-357 13 -370 20 -616 l7 -235 -94 -39 c-287 -118 -539 -230 -584 -260 -96 -63
-237 -226 -377 -436 l-77 -117 0 -411 0 -411 3500 0 3500 0 0 384 0 383 -63
94 c-35 52 -79 123 -98 158 -41 78 -121 158 -197 199 -59 31 -275 123 -490
208 l-122 49 5 130 c4 121 13 346 20 545 2 47 7 180 11 295 13 348 11 464 -12
511 -18 38 -60 67 -116 81 -25 6 -534 12 -1024 13 l-302 0 5 48 c3 26 15 63
28 83 68 106 115 236 130 360 3 30 8 61 10 69 6 23 18 123 17 141 0 13 11 9
49 -16 57 -39 86 -38 138 4 39 31 122 157 177 271 45 91 47 146 15 325 -22
118 -32 214 -40 383 0 13 -11 33 -24 46 -30 30 -72 167 -72 236 1 70 13 254
26 392 6 59 8 112 4 118 -3 5 -1 10 5 10 6 0 9 3 6 8 -2 4 -5 32 -7 62 -4 91
-23 148 -85 262 -8 15 -32 39 -53 55 -33 24 -38 32 -29 47 9 16 8 18 -7 12
-13 -5 -16 -2 -11 10 4 12 2 15 -9 10 -9 -3 -15 0 -15 9 0 19 -40 86 -49 81
-4 -3 -28 27 -54 65 -125 181 -240 276 -582 479 -196 116 -337 186 -427 209
-85 23 -123 27 -98 11z"/>
</g>
</svg>
